<svg width="60" height="100" viewBox="0 0 60 100" fill="none" xmlns="http://www.w3.org/2000/svg">
<circle cx="30" cy="50" r="30" fill="#EBF9E5"/>
<g clip-path="url(#clip0_1_312)">
<path d="M32.8653 98.9279C32.8653 98.9279 62.8684 95.2813 55.0322 66.108C50.8586 50.5601 29.9868 39.6221 35.7443 2.77246C35.7443 2.77246 22.5977 25.6113 32.0017 50.3701C41.4057 75.1288 34.0171 84.389 25.5245 84.821C17.0318 85.2531 10.378 78.3266 13.7046 70.0106C17.0313 61.6945 25.3484 64.6368 26.3714 68.7949C27.3944 72.9529 26.1154 75.9602 22.5971 78.0078C22.5971 78.0078 29.8902 77.6858 31.7451 68.8593C33.6001 60.0328 24.5804 54.3365 17.6705 56.2558C10.7607 58.1752 2.76504 64.7646 3.59643 77.3036C4.42782 89.8427 15.3819 95.6715 22.215 96.1127C30.4006 96.6414 43.6632 90.7229 44.5268 75.6097C45.3904 60.4965 35.9391 56.7045 34.4986 39.9114C34.4986 39.9114 40.4257 52.8964 45.918 61.8866C53.7746 74.7504 50.8586 92.1624 32.8653 98.9279Z" stroke="#33C200" stroke-width="1.5" stroke-miterlimit="10"/>
</g>
<defs>
<clipPath id="clip0_1_312">
<rect width="53.8741" height="100" fill="white" transform="translate(3)"/>
</clipPath>
</defs>
</svg>
