<svg width="62" height="80" viewBox="0 0 62 80" fill="none" xmlns="http://www.w3.org/2000/svg">
<circle cx="31" cy="40" r="30" fill="#C8102E" fill-opacity="0.08"/>
<g clip-path="url(#clip0_1_314)">
<path d="M13.0519 75.6845C13.0519 75.6845 -4.72441 60.9431 1.94058 46.2021C8.60558 31.4611 18.7717 29.8863 12.6815 15.8473C12.6815 15.8473 20.6647 17.2935 19.5946 32.6093C19.5946 32.6093 33.05 20.5479 16.3848 0.446289C16.3848 0.446289 33.05 0.446289 43.0493 17.1021C53.0485 33.7579 46.0118 45.2444 46.0118 45.2444C46.0118 45.2444 51.032 33.545 60.5788 31.9283C60.5788 31.9283 55.0646 38.4804 56.2994 46.3935C57.5341 54.3066 60.6609 77.9607 33.5859 79.4922C33.5859 79.4922 47.4942 64.3893 37.125 43.0748C37.125 43.0748 38.4414 51.158 31.3641 57.0291C24.2868 62.9003 14.6565 62.9426 13.0519 75.6845Z" stroke="#C8102E" stroke-width="1.5" stroke-miterlimit="10"/>
<path d="M12.9739 75.6372C12.9739 75.6372 4.51776 57.5776 22.5408 48.1968C40.5639 38.816 35.3791 26.0527 35.3791 26.0527C35.3791 26.0527 49.0201 47.1115 44.6376 60.5767C40.2551 74.0419 33.5071 79.445 33.5071 79.445C33.5071 79.445 47.415 66.1288 37.0457 43.0276C37.0457 43.0276 38.3626 51.1536 31.2848 56.9819C24.2071 62.8101 14.3934 63.1283 12.9739 75.6372Z" stroke="#C8102E" stroke-width="1.5" stroke-miterlimit="10"/>
</g>
<defs>
<clipPath id="clip0_1_314">
<rect width="61.7029" height="80" fill="white"/>
</clipPath>
</defs>
</svg>
