<svg width="70" height="73" viewBox="0 0 70 73" fill="none" xmlns="http://www.w3.org/2000/svg">
<circle cx="35" cy="36" r="30" fill="#EBEBEB"/>
<path d="M32.3996 48.4566L31.7063 48.7427L32.3996 48.4566C31.6312 46.5945 30.3465 45.3163 28.4472 44.6379C26.6788 44.0063 24.426 43.9116 21.6446 44.2439C21.5651 44.1457 21.4682 44.0227 21.3574 43.8753C21.0206 43.4275 20.555 42.7553 20.0533 41.8725C19.1479 40.2795 18.1272 38.0051 17.5295 35.1272L20.2156 35.3717C24.74 35.7835 28.4056 34.8055 30.3721 32.2962L29.7818 31.8336L30.3721 32.2962C31.1813 31.2636 31.7574 30.3445 31.7123 29.3152C31.6679 28.3017 31.0273 27.3915 30.1322 26.347C29.3894 25.4802 28.4828 24.8708 27.377 24.5496C26.2821 24.2317 25.0336 24.208 23.6144 24.4416C20.922 24.8849 17.4769 26.2797 13.0195 28.6092L8.9255 21.7206L10.4078 20.5857C12.822 18.7373 16.163 17.3276 19.5245 16.5866C22.8979 15.843 26.1812 15.7969 28.4935 16.5629C30.5405 17.241 32.3767 18.9536 33.5993 21.1431C34.8201 23.3295 35.3791 25.904 34.9697 28.2185C34.6885 29.8083 33.8991 31.7667 32.9097 33.5014C31.9073 35.259 30.7779 36.6488 29.889 37.2137L28.079 38.364L26.9081 39.1082L28.1721 39.6803L30.6722 40.8119C32.9178 41.8283 34.8997 42.0182 36.7529 40.9678C38.5261 39.9628 40.0328 37.8951 41.5907 34.8346C43.7301 30.6321 45.436 28.1121 47.3365 26.622C49.1943 25.1653 51.3166 24.6347 54.4607 24.6302C55.9504 24.6281 56.8816 24.7074 57.6923 24.9473C58.4949 25.1847 59.2332 25.5955 60.3077 26.3514C65.5003 30.004 68.4464 37.6828 67.8023 46.5793C67.394 52.2176 65.864 56.6651 63.5146 59.6848C61.1818 62.6833 58.0205 64.3066 54.2172 64.3066C52.0855 64.3066 50.392 63.9318 48.9754 63.158C47.5603 62.3851 46.3622 61.1818 45.2733 59.4279C44.3474 57.9364 43.6441 55.6465 43.3204 53.3548C43.0866 51.6995 43.0638 50.1352 43.2522 48.9339C43.5367 49.6378 43.9393 50.3488 44.3929 50.9993C45.2598 52.2424 46.4208 53.4194 47.5981 54.0306C50.3808 55.4749 53.7099 55.2624 56.6712 53.9171C59.6368 52.5699 62.3056 50.0597 63.8202 46.776C64.9918 44.2359 65.2365 40.6155 64.8324 37.4653C64.629 35.8795 64.256 34.3691 63.7248 33.1335C63.204 31.9223 62.4823 30.8617 61.5106 30.3396C61.0879 30.1126 60.4465 29.9436 59.8065 29.8297C59.1447 29.712 58.3971 29.6384 57.7153 29.6384C56.153 29.6384 54.7772 30.2156 53.4272 31.4561C52.1045 32.6715 50.7895 34.538 49.2986 37.1523C48.2977 38.9073 46.6157 41.1636 45.6005 42.1391C44.7345 42.9713 44.242 43.3388 43.599 43.5448C42.9125 43.7647 41.9949 43.8208 40.2166 43.8208H36.2807H35.1224L35.5964 44.8778L36.8686 47.7143C37.722 49.617 38.1462 52.1657 38.1125 54.7504C38.0787 57.335 37.5881 59.873 36.6851 61.7554C35.8838 63.4258 34.5395 65.1361 33.005 66.5368C31.4638 67.9436 29.7945 68.9801 28.3753 69.3758C26.9369 69.7769 25.0027 69.9604 23.0767 69.9178C21.1467 69.875 19.3039 69.607 18.0395 69.1534C10.724 66.5294 5.3496 59.9815 3.20997 50.8723C2.72785 48.8196 2.41393 46.0691 2.32395 43.8299C2.29974 43.2274 2.29211 42.6702 2.30089 42.1798C2.50591 42.7947 2.72155 43.5164 2.92596 44.2898L3.64828 44.0988L2.92596 44.2898C4.29354 49.4634 6.6442 54.4182 8.99901 56.9036L9.54345 56.3877L8.99901 56.9036C11.0075 59.0234 14.4084 60.4286 17.9095 61.0128C21.4179 61.5983 25.1968 61.3884 28.0201 60.1018C32.5275 58.0476 34.3348 53.1463 32.3996 48.4566ZM31.4308 9.45054C31.3685 9.12681 31.3203 8.82294 31.2861 8.54445C32.882 10.9551 35.2737 13.0467 37.7585 14.5813L37.7908 14.6012L37.8248 14.6177C40.6629 15.9968 43.5485 16.4171 46.5128 15.8437C49.463 15.2731 52.44 13.7285 55.4959 11.2634C56.1409 10.7432 56.7401 10.3065 57.1816 10.0222C57.2369 9.98662 57.2883 9.95428 57.336 9.92508C57.8544 10.6452 58.4588 11.3333 59.0363 11.9907C59.2626 12.2483 59.4847 12.5011 59.6959 12.7494C60.55 13.7533 61.2692 14.7244 61.6598 15.8105C61.6489 15.8282 61.6353 15.8491 61.6183 15.8733C61.5201 16.0136 61.3577 16.1972 61.1232 16.4191C60.6566 16.8603 59.9771 17.385 59.1612 17.9325C57.5382 19.0217 55.4606 20.1446 53.6421 20.8309C49.0271 22.1624 45.2591 22.5279 42.005 21.6298C38.7741 20.7382 35.9358 18.5683 33.2432 14.5863C32.4326 13.1892 31.7579 11.15 31.4308 9.45054ZM40.5202 10.8376C39.5265 10.0163 38.7009 9.1566 38.2147 8.22634L43.4726 2.37423L49.0844 7.58862C48.335 8.2936 47.645 9.08384 46.9823 9.84265C46.801 10.0503 46.6217 10.2556 46.4438 10.4562C45.5275 11.4893 44.6302 12.4209 43.5981 13.0984C43.3422 12.9146 43.0811 12.731 42.8172 12.5455C42.0566 12.0107 41.2725 11.4593 40.5202 10.8376Z" stroke="black" stroke-width="1.5"/>
</svg>
