<svg width="67" height="70" viewBox="0 0 67 70" fill="none" xmlns="http://www.w3.org/2000/svg">
<circle cx="33" cy="35" r="30" fill="#FFF8E4"/>
<g clip-path="url(#clip0_1_316)">
<path d="M3.88222 21.7126C4.12481 23.5831 4.81196 25.4669 6.30781 27.433C8.68395 30.5562 13.0582 33.8296 20.7418 37.6714C28.1498 41.3754 31.5167 47.6167 33.0359 52.9816C33.7958 55.6651 34.0891 58.1181 34.1921 59.8998C34.2432 60.7839 34.2473 61.5004 34.2387 61.9949C24.9828 61.0313 18.4555 56.0584 14.1966 51.2266C12.0084 48.7441 10.4277 46.3076 9.39475 44.4927C8.87863 43.5859 8.50025 42.8359 8.25197 42.3153C8.12785 42.0551 8.03631 41.8523 7.97638 41.716C7.94642 41.6479 7.92436 41.5964 7.91007 41.5627L7.89438 41.5253L7.89066 41.5163L7.88942 41.5133L7.88814 41.5102C7.88695 41.5074 7.60932 41.1732 7.196 41.0491C6.95936 41.0491 6.7366 41.1608 6.59503 41.3504C6.45346 41.54 6.40967 41.7853 6.47691 42.0122C9.64868 52.7154 16.2887 59.7791 22.1175 64.1591C24.2915 65.7928 26.3557 67.0555 28.0908 67.9974C26.7691 67.676 25.2578 67.2283 23.6312 66.6048C18.1184 64.4917 11.2878 60.3628 6.00841 52.285C0.761101 44.2562 0.56244 35.8733 1.69238 29.4596C2.25115 26.2879 3.13347 23.6089 3.88222 21.7126Z" stroke="#FFC421" stroke-width="1.5" stroke-miterlimit="10" stroke-linejoin="round"/>
<path d="M56.1445 51.9765C52.6793 57.5766 46.9118 64.1248 37.6178 68.2327C37.5544 67.7613 37.4844 67.1203 37.4384 66.3408C37.3336 64.5657 37.3532 62.0799 37.8518 59.2466C38.8472 53.5894 41.7489 46.5484 49.4077 40.9788C57.3952 35.1702 60.3639 29.1751 61.2959 24.5653C61.5945 23.0883 61.6822 21.7625 61.663 20.6414C61.8094 20.9247 61.9598 21.2251 62.1124 21.5417C63.3673 24.1449 64.7682 27.8344 65.3629 32.1877C66.3221 39.2089 65.1961 48.0175 57.8323 56.8479C60.1067 52.8597 62.2994 47.5071 62.2994 41.6687C62.2994 41.2545 61.9636 40.9187 61.5494 40.9187C61.1902 40.9187 60.89 41.1713 60.8166 41.5085L60.8081 41.5428C60.7998 41.5761 60.7868 41.6273 60.7687 41.6955C60.7325 41.8318 60.6761 42.0359 60.5968 42.3004C60.4384 42.8295 60.1887 43.5998 59.8268 44.5524C59.1027 46.4583 57.9309 49.0894 56.1445 51.9765Z" stroke="#FFC421" stroke-width="1.5" stroke-miterlimit="10" stroke-linejoin="round"/>
<path d="M53.4816 23.8617L53.4816 23.8618C52.5862 28.8404 49.9069 32.8275 47.4205 35.5868C46.6665 36.4236 45.9334 37.1439 45.2787 37.7409C45.8443 36.4779 46.4996 34.8912 47.1095 33.1159C48.6148 28.7344 49.8943 23.0632 48.7217 18.2709C48.6298 17.8954 48.2676 17.6513 47.8851 17.707C47.5028 17.7626 47.2253 18.0996 47.2441 18.4855L47.2441 18.4857L47.2441 18.486L47.2443 18.4902L47.2451 18.5132C47.2459 18.5347 47.2469 18.5684 47.2478 18.6137C47.2495 18.7042 47.2508 18.8411 47.2484 19.0196C47.2437 19.3767 47.2246 19.8996 47.1662 20.5503C47.0492 21.853 46.7757 23.6608 46.1501 25.6732C44.9593 29.5042 42.5022 34.0536 37.4315 37.3024C37.3445 37.0336 37.2441 36.7061 37.1385 36.3273C36.8149 35.1666 36.4439 33.5317 36.2547 31.6384C35.8749 27.839 36.2342 23.0839 39.0742 19.0083C42.1194 14.6383 43.4549 10.7472 44.0255 7.92895C44.2896 6.62423 44.3894 5.55141 44.4197 4.76952C44.6518 4.92711 44.9127 5.11072 45.1958 5.32021C46.3439 6.1697 47.8481 7.43814 49.2758 9.11315C52.1277 12.4591 54.647 17.3875 53.4816 23.8617Z" stroke="#FFC421" stroke-width="1.5" stroke-miterlimit="10" stroke-linejoin="round"/>
<path d="M27.4479 26.6837C30.216 30.1973 32.794 35.3259 33.9785 44.7747C33.8777 44.5288 33.7721 44.2795 33.6616 44.0272C31.4586 38.9994 27.2789 32.7865 19.3879 28.0226C11.9154 23.5112 9.6138 16.4339 10.8793 10.7061C11.9924 5.66803 15.856 1.63779 21.5535 1.17856C20.7643 1.78446 19.8605 2.59166 19.0397 3.60118C18.0032 4.87591 17.0864 6.48907 16.7156 8.4368C16.3433 10.3927 16.5311 12.638 17.6334 15.1505C18.7379 17.6677 20.3472 19.4452 22.0848 21.1397C22.4689 21.5143 22.8574 21.8833 23.2486 22.2549C24.642 23.5783 26.0691 24.9337 27.4479 26.6837Z" stroke="#FFC421" stroke-width="1.5" stroke-miterlimit="10" stroke-linejoin="round"/>
<path d="M26.2545 8.41682C26.4219 7.00526 27.1411 5.48619 28.7387 4.19837C28.6769 4.34945 28.6181 4.50542 28.5633 4.6658C28.2473 5.5915 28.0597 6.68876 28.2525 7.85215C28.4471 9.02629 29.0214 10.2182 30.1501 11.3289C31.9646 13.1144 32.4059 15.8753 32.3346 18.345C32.3314 18.4557 32.3272 18.5655 32.322 18.6741C31.6399 16.9033 30.4092 14.8811 28.1934 13.2969L28.1933 13.2968C26.9183 12.3858 26.0104 10.4751 26.2545 8.41682Z" stroke="#FFC421" stroke-width="1.5" stroke-miterlimit="10" stroke-linejoin="round"/>
</g>
<defs>
<clipPath id="clip0_1_316">
<rect width="66.7896" height="70" fill="white"/>
</clipPath>
</defs>
</svg>
