<svg width="40" height="76" viewBox="0 0 40 76" fill="none" xmlns="http://www.w3.org/2000/svg">
<path d="M39.2645 67.2734H0V75.6499H39.2645V67.2734Z" fill="white"/>
<path d="M32.7203 54.4463H6.54395V58.8963H32.7203V54.4463Z" fill="white"/>
<path d="M36.6464 60.2061H2.61719V65.9648H36.6464V60.2061Z" fill="white"/>
<path d="M19.6244 11.256C15.7066 11.256 14.1769 7.25603 13.873 4.97363C14.8812 6.08025 16.5718 7.85084 19.6244 7.85084C22.5734 7.85084 24.5068 5.88659 25.3906 4.97363C25.1282 7.18687 23.4434 11.256 19.6244 11.256Z" fill="white"/>
<path d="M19.6324 6.28232C21.3672 6.28232 22.7735 4.87597 22.7735 3.14116C22.7735 1.40634 21.3672 0 19.6324 0C17.8976 0 16.4912 1.40634 16.4912 3.14116C16.4912 4.87597 17.8976 6.28232 19.6324 6.28232Z" fill="white"/>
<path d="M17.3315 12.5645L14.3965 36.1231H24.867L22.0104 12.5645H17.3315Z" fill="white"/>
<path fill-rule="evenodd" clip-rule="evenodd" d="M6.54411 42.7873C6.51419 46.1469 10.5125 53.1365 10.5125 53.1365H15.1135L14.2694 49.885C14.2694 49.885 13.5598 47.4607 14.9942 46.3676L16.3568 45.438V44.0027L19.6323 41.2621V41.2578L19.6349 41.26L19.6363 41.2588V41.2612L22.9119 44.0018V45.437L24.2745 46.3667C25.7089 47.4597 24.9993 49.884 24.9993 49.884L24.1549 53.1365H29.3532C29.3532 53.1365 32.75 46.1366 32.7201 42.7733C32.6902 38.5693 24.8615 37.4307 24.8615 37.4307H14.4195C14.4195 37.4307 6.57404 38.587 6.54411 42.7873Z" fill="white"/>
</svg>
