<svg width="55" height="55" viewBox="0 0 55 55" fill="none" xmlns="http://www.w3.org/2000/svg">
<path d="M38.1578 38.1618C44.0455 32.2734 44.0455 22.7266 38.1578 16.8382C32.27 10.9499 22.7242 10.9499 16.8364 16.8382C10.9487 22.7266 10.9487 32.2734 16.8364 38.1618C22.7242 44.0501 32.27 44.0501 38.1578 38.1618Z" stroke="#33C200" stroke-width="1.7" stroke-linecap="round" stroke-linejoin="round"/>
<path d="M41.2456 41.25C48.8387 33.6561 48.8387 21.3439 41.2456 13.75C33.6525 6.15608 21.3417 6.15608 13.7485 13.75C6.15544 21.3439 6.15543 33.6561 13.7485 41.25C21.3417 48.8439 33.6525 48.8439 41.2456 41.25Z" stroke="#33C200" stroke-width="1.7" stroke-linecap="round" stroke-linejoin="round"/>
<path d="M32.4958 31.7431C31.6803 32.4872 30.666 32.978 29.5766 33.156C28.4872 33.334 27.3695 33.1915 26.3596 32.7457C25.3497 32.2999 24.4912 31.5702 23.8884 30.6453C23.2857 29.7204 22.9648 28.6402 22.9648 27.5362C22.9648 26.4322 23.2857 25.352 23.8884 24.4271C24.4912 23.5021 25.3497 22.7724 26.3596 22.3266C27.3695 21.8809 28.4872 21.7383 29.5766 21.9163C30.666 22.0943 31.6803 22.5852 32.4958 23.3292" stroke="#33C200" stroke-width="1.7" stroke-linecap="round" stroke-linejoin="round"/>
<path d="M21.0488 25.7725H28.4412" stroke="#33C200" stroke-width="1.7" stroke-linecap="round" stroke-linejoin="round"/>
<path d="M21.0488 29.2285H28.4412" stroke="#33C200" stroke-width="1.7" stroke-linecap="round" stroke-linejoin="round"/>
</svg>
