<svg width="52" height="52" viewBox="0 0 52 52" fill="none" xmlns="http://www.w3.org/2000/svg">
<circle cx="26" cy="26" r="10" fill="#FF5C39"/>
<path fill-rule="evenodd" clip-rule="evenodd" d="M26 18.1811L26 0H23L23 18.9005L15.9994 1.99964L13.2278 3.14769L20.3555 20.3555L7.61522 7.61522L5.4939 9.73654L18.6555 22.8981L2.00062 15.9994L0.852565 18.7711L18.3047 26L0 26V29L18.7788 29L2.00062 35.9498L3.14867 38.7214L20.4415 31.5585L7.61522 44.3848L9.73654 46.5061L22.9133 33.3293L15.9994 50.0209L18.7711 51.1689L26 33.7168L26 52H29L29 33.2606L35.9288 50.0295L38.7014 48.8839L31.5316 31.5316L44.3848 44.3848L46.5061 42.2635L33.2426 29L50.0209 35.9498L51.1689 33.1781L33.8394 26H52V23H33.12L50.0209 15.9994L48.8728 13.2278L31.63 20.37L44.3848 7.61522L42.2635 5.4939L29.0145 18.7429L35.9498 1.99964L33.1781 0.851589L26 18.1811Z" fill="#FF5C39"/>
</svg>
