<svg width="65" height="80" viewBox="0 0 65 80" fill="none" xmlns="http://www.w3.org/2000/svg">
<circle cx="32" cy="40" r="30" fill="#094B88" fill-opacity="0.1"/>
<g clip-path="url(#clip0_1_315)">
<path d="M39.0145 29.1476C39.0145 29.1476 40.0918 41.6594 29.4861 40.3335C18.8804 39.0077 20.786 27.9049 22.6916 25.7503C24.5972 23.5958 29.9005 17.1333 41.3345 21.2762C52.7685 25.4191 56.8846 42.6548 50.6975 57.1272C44.5105 71.5995 27.2765 83.0894 7.28048 78.5599C7.28048 78.5599 30.8145 78.2287 36.6673 59.6684C36.6673 59.6684 25.1778 68.6171 13.2463 62.4305C1.31471 56.2439 2.19932 44.7527 2.19932 44.7527C2.19932 44.7527 13.2471 58.8938 27.0566 53.7013C41.5316 48.2581 40.3681 35.5277 39.0145 29.1476Z" stroke="#094B88" stroke-width="1.5" stroke-miterlimit="10"/>
<path d="M33.3807 16.3051C33.3807 16.3051 23.7692 8.01933 8.02596 14.4822C-7.71723 20.945 4.6287 37.517 12.9144 27.1593C21.2002 16.8017 33.3807 16.3051 33.3807 16.3051Z" stroke="#094B88" stroke-width="1.5" stroke-miterlimit="10"/>
<path d="M58.5693 38.5933C58.5693 38.5933 59.3171 28.3188 50.6953 20.2816C42.0735 12.2444 55.0062 3.79276 60.5554 9.92438C66.1046 16.056 63.292 29.8104 58.5693 38.5933Z" stroke="#094B88" stroke-width="1.5" stroke-miterlimit="10"/>
<path d="M17.5292 42.1863C19.7727 39.9428 19.7727 36.3053 17.5292 34.0617C15.2856 31.8182 11.6481 31.8182 9.40458 34.0617C7.16104 36.3053 7.16104 39.9428 9.40458 42.1863C11.6481 44.4299 15.2856 44.4299 17.5292 42.1863Z" stroke="#094B88" stroke-width="1.5" stroke-miterlimit="10"/>
<path d="M56.8547 62.4292C58.8073 62.4292 60.3901 60.8463 60.3901 58.8938C60.3901 56.9412 58.8073 55.3584 56.8547 55.3584C54.9022 55.3584 53.3193 56.9412 53.3193 58.8938C53.3193 60.8463 54.9022 62.4292 56.8547 62.4292Z" stroke="#094B88" stroke-width="1.5" stroke-miterlimit="10"/>
<path d="M13.9509 7.51023C15.9035 7.51023 17.4863 5.92738 17.4863 3.97484C17.4863 2.0223 15.9035 0.439453 13.9509 0.439453C11.9984 0.439453 10.4155 2.0223 10.4155 3.97484C10.4155 5.92738 11.9984 7.51023 13.9509 7.51023Z" stroke="#094B88" stroke-width="1.5" stroke-miterlimit="10"/>
</g>
<defs>
<clipPath id="clip0_1_315">
<rect width="64.058" height="80" fill="white"/>
</clipPath>
</defs>
</svg>
