<svg width="25" height="25" viewBox="0 0 25 25" fill="none" xmlns="http://www.w3.org/2000/svg">
<path d="M19.1344 13.3655C19.0184 13.2493 18.8807 13.1572 18.729 13.0943C18.5774 13.0314 18.4148 12.999 18.2507 12.999C18.0865 12.999 17.9239 13.0314 17.7723 13.0943C17.6206 13.1572 17.4829 13.2493 17.3669 13.3655L15.3744 15.358C14.4507 15.083 12.7269 14.458 11.6344 13.3655C10.5419 12.273 9.91691 10.5493 9.64191 9.62553L11.6344 7.63303C11.7506 7.51704 11.8428 7.37929 11.9057 7.22764C11.9685 7.076 12.0009 6.91344 12.0009 6.74928C12.0009 6.58511 11.9685 6.42255 11.9057 6.27091C11.8428 6.11927 11.7506 5.98151 11.6344 5.86553L6.63441 0.865525C6.51842 0.749343 6.38067 0.65717 6.22903 0.594282C6.07738 0.531394 5.91483 0.499023 5.75066 0.499023C5.58649 0.499023 5.42394 0.531394 5.27229 0.594282C5.12065 0.65717 4.9829 0.749343 4.86691 0.865525L1.47691 4.25553C1.00191 4.73053 0.734411 5.38303 0.744411 6.04928C0.773161 7.82928 1.24441 14.0118 6.11691 18.8843C10.9894 23.7568 17.1719 24.2268 18.9532 24.2568H18.9882C19.6482 24.2568 20.2719 23.9968 20.7444 23.5243L24.1344 20.1343C24.2506 20.0183 24.3428 19.8805 24.4056 19.7289C24.4685 19.5772 24.5009 19.4147 24.5009 19.2505C24.5009 19.0864 24.4685 18.9238 24.4056 18.7722C24.3428 18.6205 24.2506 18.4828 24.1344 18.3668L19.1344 13.3655ZM18.9757 21.7555C17.4157 21.7293 12.0782 21.3105 7.88441 17.1155C3.67691 12.908 3.26941 7.55178 3.24441 6.02303L5.75066 3.51678L8.98316 6.74928L7.36691 8.36553C7.21999 8.51234 7.11196 8.69345 7.0526 8.89249C6.99324 9.09152 6.98441 9.30222 7.02691 9.50553C7.05691 9.64928 7.79066 13.058 9.86566 15.133C11.9407 17.208 15.3494 17.9418 15.4932 17.9718C15.6963 18.0155 15.9073 18.0074 16.1065 17.9482C16.3057 17.889 16.4868 17.7806 16.6332 17.633L18.2507 16.0168L21.4832 19.2493L18.9757 21.7555Z" fill="#FF5C39"/>
</svg>
