<svg width="180" height="76" viewBox="0 0 180 76" fill="none" xmlns="http://www.w3.org/2000/svg">
<path d="M54.749 75.6415H53.5998C53.356 75.6415 53.2341 75.5196 53.2341 75.2758V59.2131C53.2341 58.9693 53.356 58.8475 53.5998 58.8475H54.6706C54.8796 58.8475 55.0189 58.9171 55.0885 59.0564L62.2972 71.7238H62.4016V59.2131C62.4016 58.9693 62.5235 58.8475 62.7673 58.8475H63.9165C64.1603 58.8475 64.2821 58.9693 64.2821 59.2131V75.2758C64.2821 75.5196 64.1603 75.6415 63.9165 75.6415H62.9501C62.7586 75.6415 62.5758 75.5283 62.4016 75.302L55.2191 62.7652H55.1146V75.2758C55.1146 75.5196 54.9928 75.6415 54.749 75.6415Z" fill="white"/>
<path d="M68.358 75.6415H67.0521C66.8257 75.6415 66.7474 75.5196 66.817 75.2758L71.7011 59.2131C71.7708 58.9693 71.9362 58.8475 72.1974 58.8475H74.0779C74.3391 58.8475 74.5045 58.9693 74.5742 59.2131L79.4583 75.2758C79.5279 75.5196 79.4495 75.6415 79.2232 75.6415H77.8912C77.6996 75.6415 77.5777 75.5196 77.5255 75.2758L76.298 71.4626H69.9773L68.7498 75.2758C68.6801 75.5196 68.5495 75.6415 68.358 75.6415ZM73.0854 60.8063L70.3952 69.8432H75.8801L73.1899 60.8063H73.0854Z" fill="white"/>
<path d="M93.7982 58.8475H95.9138C96.1575 58.8475 96.2794 58.9693 96.2794 59.2131V75.2758C96.2794 75.5196 96.1575 75.6415 95.9138 75.6415H94.7646C94.5208 75.6415 94.3989 75.5196 94.3989 75.2758V61.407H94.2944L90.2461 71.6454C90.1416 71.8718 89.9849 71.9849 89.776 71.9849H88.5223C88.2959 71.9849 88.1479 71.8718 88.0783 71.6454L83.9516 61.3809H83.8471V75.2758C83.8471 75.5196 83.734 75.6415 83.5076 75.6415H82.3584C82.1146 75.6415 81.9927 75.5196 81.9927 75.2758V59.2131C81.9927 58.9693 82.1146 58.8475 82.3584 58.8475H84.474C84.6307 58.8475 84.7352 58.9171 84.7874 59.0564L89.0708 69.8694H89.2014L93.4848 59.0564C93.5196 58.9171 93.6241 58.8475 93.7982 58.8475Z" fill="white"/>
<path d="M106.572 75.6415H103.751C102.55 75.6415 101.601 75.302 100.904 74.6229C100.225 73.9438 99.8858 72.9948 99.8858 71.776V62.713C99.8858 61.4941 100.225 60.5451 100.904 59.8661C101.601 59.187 102.55 58.8475 103.751 58.8475H106.572C107.773 58.8475 108.714 59.1957 109.393 59.8922C110.072 60.5713 110.411 61.5115 110.411 62.713V63.7838C110.411 64.045 110.29 64.1756 110.046 64.1756H108.87C108.627 64.1756 108.505 64.045 108.505 63.7838V62.7913C108.505 61.2765 107.782 60.519 106.337 60.519H103.96C102.515 60.519 101.792 61.2765 101.792 62.7913V71.6976C101.792 73.2125 102.515 73.9699 103.96 73.9699H106.337C107.782 73.9699 108.505 73.2125 108.505 71.6976V68.7724C108.505 68.5983 108.426 68.5112 108.27 68.5112H105.684C105.44 68.5112 105.318 68.398 105.318 68.1717V67.2053C105.318 66.9615 105.44 66.8396 105.684 66.8396H109.889C110.237 66.8396 110.411 67.0225 110.411 67.3881V71.776C110.411 72.9948 110.072 73.9438 109.393 74.6229C108.714 75.302 107.773 75.6415 106.572 75.6415Z" fill="white"/>
<path d="M118.721 75.6415H117.546C117.302 75.6415 117.18 75.5196 117.18 75.2758V69.347L112.217 59.2392C112.165 59.1173 112.165 59.0216 112.217 58.9519C112.27 58.8823 112.348 58.8475 112.453 58.8475H113.915C114.107 58.8475 114.255 58.9693 114.359 59.2131L118.094 67.1269H118.225L121.933 59.2131C122.003 58.9693 122.142 58.8475 122.351 58.8475H123.84C124.136 58.8475 124.214 58.9781 124.075 59.2392L119.087 69.347V75.2758C119.087 75.5196 118.965 75.6415 118.721 75.6415Z" fill="white"/>
<path d="M127.358 56.8102V54.1723C127.358 53.9285 127.471 53.8066 127.697 53.8066H128.82C129.029 53.8066 129.134 53.9198 129.134 54.1462V56.8102C129.134 57.054 129.029 57.1759 128.82 57.1759H127.697C127.471 57.1759 127.358 57.054 127.358 56.8102ZM131.824 56.8102V54.1723C131.824 53.9285 131.937 53.8066 132.164 53.8066H133.287C133.496 53.8066 133.6 53.9198 133.6 54.1462V56.8102C133.6 57.054 133.496 57.1759 133.287 57.1759H132.164C131.937 57.1759 131.824 57.054 131.824 56.8102ZM125.712 75.6415H124.406C124.18 75.6415 124.102 75.5196 124.171 75.2758L129.055 59.2131C129.125 58.9693 129.291 58.8475 129.552 58.8475H131.432C131.693 58.8475 131.859 58.9693 131.928 59.2131L136.813 75.2758C136.882 75.5196 136.804 75.6415 136.578 75.6415H135.245C135.054 75.6415 134.932 75.5196 134.88 75.2758L133.652 71.4626H127.332L126.104 75.2758C126.034 75.5196 125.904 75.6415 125.712 75.6415ZM130.44 60.8063L127.75 69.8432H133.234L130.544 60.8063H130.44Z" fill="white"/>
<path d="M148.071 75.6415H139.687C139.443 75.6415 139.322 75.5196 139.322 75.2758V59.2131C139.322 58.9693 139.443 58.8475 139.687 58.8475H140.863C141.106 58.8475 141.228 58.9693 141.228 59.2131V73.6826C141.228 73.8393 141.315 73.9177 141.489 73.9177H148.071C148.315 73.9177 148.437 74.0483 148.437 74.3095V75.2758C148.437 75.5196 148.315 75.6415 148.071 75.6415Z" fill="white"/>
<path d="M162.314 58.8475H164.429C164.673 58.8475 164.795 58.9693 164.795 59.2131V75.2758C164.795 75.5196 164.673 75.6415 164.429 75.6415H163.28C163.036 75.6415 162.914 75.5196 162.914 75.2758V61.407H162.81L158.761 71.6454C158.657 71.8718 158.5 71.9849 158.291 71.9849H157.038C156.811 71.9849 156.663 71.8718 156.594 71.6454L152.467 61.3809H152.363V75.2758C152.363 75.5196 152.249 75.6415 152.023 75.6415H150.874C150.63 75.6415 150.508 75.5196 150.508 75.2758V59.2131C150.508 58.9693 150.63 58.8475 150.874 58.8475H152.989C153.146 58.8475 153.251 58.9171 153.303 59.0564L157.586 69.8694H157.717L162 59.0564C162.035 58.9171 162.139 58.8475 162.314 58.8475Z" fill="white"/>
<path d="M168.871 75.6415H167.565C167.339 75.6415 167.261 75.5196 167.33 75.2758L172.214 59.2131C172.284 58.9693 172.449 58.8475 172.711 58.8475H174.591C174.852 58.8475 175.018 58.9693 175.087 59.2131L179.972 75.2758C180.041 75.5196 179.963 75.6415 179.736 75.6415H178.404C178.213 75.6415 178.091 75.5196 178.039 75.2758L176.811 71.4626H170.491L169.263 75.2758C169.193 75.5196 169.063 75.6415 168.871 75.6415ZM173.599 60.8063L170.908 69.8432H176.393L173.703 60.8063H173.599Z" fill="white"/>
<path d="M55.8247 50.4451H53.9513C53.5627 50.4451 53.3684 50.2353 53.3684 49.8158V22.1723C53.3684 21.7527 53.5627 21.543 53.9513 21.543H63.6932C65.6083 21.543 67.107 22.1423 68.1895 23.3409C69.2719 24.5096 69.8131 26.1278 69.8131 28.1954V33.1847C69.8131 35.2823 69.2719 36.9155 68.1895 38.0841C67.107 39.2528 65.6083 39.8371 63.6932 39.8371H56.8239C56.5463 39.8371 56.4076 39.972 56.4076 40.2417V49.8158C56.4076 50.2353 56.2133 50.4451 55.8247 50.4451ZM56.8239 36.9155H63.2769C65.6083 36.9155 66.774 35.6269 66.774 33.0499V28.3302C66.774 25.7232 65.6083 24.4197 63.2769 24.4197H56.8239C56.5463 24.4197 56.4076 24.5545 56.4076 24.8242V36.5109C56.4076 36.7806 56.5463 36.9155 56.8239 36.9155Z" fill="white"/>
<path d="M74.4461 50.4451H72.3645C72.0037 50.4451 71.8788 50.2353 71.9898 49.8158L79.775 22.1723C79.886 21.7527 80.1497 21.543 80.566 21.543H83.5635C83.9799 21.543 84.2435 21.7527 84.3545 22.1723L92.1398 49.8158C92.2508 50.2353 92.1259 50.4451 91.7651 50.4451H89.6418C89.3365 50.4451 89.1422 50.2353 89.059 49.8158L87.1023 43.2533H77.0273L75.0706 49.8158C74.9596 50.2353 74.7514 50.4451 74.4461 50.4451ZM81.9815 24.9141L77.6934 40.4664H86.4361L82.148 24.9141H81.9815Z" fill="white"/>
<path d="M106.005 50.4451H101.509C99.5935 50.4451 98.0809 49.8607 96.9707 48.6921C95.8883 47.5234 95.3471 45.8903 95.3471 43.7926V28.1954C95.3471 26.0978 95.8883 24.4646 96.9707 23.296C98.0809 22.1273 99.5935 21.543 101.509 21.543H106.005C107.92 21.543 109.419 22.1423 110.501 23.3409C111.584 24.5096 112.125 26.1278 112.125 28.1954V30.0383C112.125 30.4878 111.931 30.7125 111.542 30.7125H109.669C109.28 30.7125 109.086 30.4878 109.086 30.0383V28.3302C109.086 25.7232 107.934 24.4197 105.63 24.4197H101.842C99.538 24.4197 98.3862 25.7232 98.3862 28.3302V43.6578C98.3862 46.2648 99.538 47.5684 101.842 47.5684H105.63C107.934 47.5684 109.086 46.2648 109.086 43.6578V38.6235C109.086 38.3239 108.961 38.174 108.711 38.174H104.589C104.201 38.174 104.007 37.9793 104.007 37.5897V35.9266C104.007 35.5071 104.201 35.2973 104.589 35.2973H111.292C111.847 35.2973 112.125 35.612 112.125 36.2412V43.7926C112.125 45.8903 111.584 47.5234 110.501 48.6921C109.419 49.8607 107.92 50.4451 106.005 50.4451Z" fill="white"/>
<path d="M123.533 47.5684H127.779C130.111 47.5684 131.276 46.2648 131.276 43.6578V28.3302C131.276 25.7232 130.111 24.4197 127.779 24.4197H123.533C121.229 24.4197 120.077 25.7232 120.077 28.3302V43.6578C120.077 46.2648 121.229 47.5684 123.533 47.5684ZM128.154 50.4451H123.2C121.285 50.4451 119.772 49.8607 118.662 48.6921C117.579 47.5234 117.038 45.8903 117.038 43.7926V28.1954C117.038 26.0978 117.579 24.4646 118.662 23.296C119.772 22.1273 121.285 21.543 123.2 21.543H128.154C130.069 21.543 131.568 22.1423 132.65 23.3409C133.76 24.5096 134.315 26.1278 134.315 28.1954V43.7926C134.315 45.8603 133.76 47.4934 132.65 48.6921C131.568 49.8607 130.069 50.4451 128.154 50.4451Z" fill="white"/>
<path d="M143.089 47.5684H150.083C152.414 47.5684 153.58 46.2648 153.58 43.6578V28.3302C153.58 25.7232 152.414 24.4197 150.083 24.4197H143.089C142.811 24.4197 142.672 24.5545 142.672 24.8242V47.1638C142.672 47.4335 142.811 47.5684 143.089 47.5684ZM139.633 49.8158V22.1723C139.633 21.7527 139.828 21.543 140.216 21.543H150.458C152.373 21.543 153.871 22.1423 154.954 23.3409C156.064 24.5096 156.619 26.1278 156.619 28.1954V43.7926C156.619 45.8603 156.064 47.4934 154.954 48.6921C153.871 49.8607 152.373 50.4451 150.458 50.4451H140.216C139.828 50.4451 139.633 50.2353 139.633 49.8158Z" fill="white"/>
<path d="M162.267 50.4451H160.186C159.825 50.4451 159.7 50.2353 159.811 49.8158L167.596 22.1723C167.707 21.7527 167.971 21.543 168.387 21.543H171.385C171.801 21.543 172.065 21.7527 172.176 22.1723L179.961 49.8158C180.072 50.2353 179.947 50.4451 179.586 50.4451H177.463C177.158 50.4451 176.963 50.2353 176.88 49.8158L174.923 43.2533H164.848L162.892 49.8158C162.781 50.2353 162.572 50.4451 162.267 50.4451ZM169.803 24.9141L165.514 40.4664H174.257L169.969 24.9141H169.803Z" fill="white"/>
<path d="M39.2645 67.2734H0V75.6499H39.2645V67.2734Z" fill="white"/>
<path d="M32.7205 54.4463H6.54419V58.8963H32.7205V54.4463Z" fill="white"/>
<path d="M36.6467 60.2061H2.61743V65.9648H36.6467V60.2061Z" fill="white"/>
<path d="M19.6249 11.256C15.7071 11.256 14.1774 7.25603 13.8735 4.97363C14.8817 6.08025 16.5723 7.85084 19.6249 7.85084C22.5739 7.85084 24.5073 5.88659 25.3911 4.97363C25.1287 7.18687 23.4439 11.256 19.6249 11.256Z" fill="white"/>
<path d="M19.6321 6.28232C21.3669 6.28232 22.7733 4.87597 22.7733 3.14116C22.7733 1.40634 21.3669 0 19.6321 0C17.8973 0 16.491 1.40634 16.491 3.14116C16.491 4.87597 17.8973 6.28232 19.6321 6.28232Z" fill="white"/>
<path d="M17.332 12.5645L14.397 36.1231H24.8675L22.0109 12.5645H17.332Z" fill="white"/>
<path fill-rule="evenodd" clip-rule="evenodd" d="M6.54436 42.7873C6.51443 46.1469 10.5128 53.1365 10.5128 53.1365H15.1139L14.2698 49.885C14.2698 49.885 13.5601 47.4607 14.9946 46.3676L16.3572 45.438V44.0027L19.6321 41.2626V41.2578L19.635 41.2602L19.6367 41.2588V41.2617L22.9116 44.0018V45.437L24.2742 46.3667C25.7087 47.4597 24.999 49.884 24.999 49.884L24.1547 53.1365H29.3534C29.3534 53.1365 32.7502 46.1366 32.7203 42.7733C32.6904 38.5693 24.8618 37.4307 24.8618 37.4307H14.4197C14.4197 37.4307 6.57428 38.587 6.54436 42.7873Z" fill="white"/>
</svg>
