<svg width="637" height="146" viewBox="0 0 637 146" fill="none" xmlns="http://www.w3.org/2000/svg">
<path d="M161.432 77.1353C167.929 79.5613 173.392 82.5267 181.732 90.0994C181.732 90.1295 181.817 90.1764 181.817 90.1764C181.871 90.225 181.817 50.135 181.817 50.135L184.411 39.9336H139.176L136.391 48.5232H142.441C140.712 51.8589 137.874 58.3979 135.88 68.3647L133.585 76.2172L133.25 77.1353C133.25 77.1353 142.227 69.9664 161.432 77.1353ZM150.877 48.5232H171.79C172.99 48.9957 177.333 53.3182 181.702 89.8665C180.092 87.2177 171.474 73.6288 161.445 69.0918C150.841 64.3003 144.492 65.5065 138.382 66.2906C141.032 60.7032 145.15 53.6935 150.878 48.5232H150.877Z" fill="black"/>
<path d="M188.431 67.2218C188.431 67.2218 188.505 67.1179 188.642 66.9336C188.373 67.1279 188.431 67.2218 188.431 67.2218Z" fill="black"/>
<path d="M224.189 105.741C212.932 101.562 206.175 102.594 199.688 103.281C201.305 98.3674 203.94 92.3595 208.109 87.325H232.433L235.199 80.1476H234.697V47.9268L237.042 39.9336H228.121L226.003 47.9268C226.003 47.9268 230.076 46.6954 234.7 80.1476C225.765 62.9717 218.261 53.0719 213.498 47.4778H217.931L220.088 39.9386H193.593L191.137 47.4778H196.376C194.821 50.3494 192.487 55.7341 191.298 63.7776C190.356 64.7799 189.471 65.8342 188.647 66.9356C189.13 66.6006 190.658 65.9438 195.471 64.9503C203.01 63.3939 211.176 76.5891 211.176 76.5891C210.59 68.2877 206.133 61.0768 200.883 59.058C198.008 57.9506 194.548 60.5072 192.003 63.0454C193.469 60.0733 196.77 54.114 201.751 49.2353C216.744 56.1043 231.609 76.1184 234.013 79.4507C234.105 79.578 234.603 80.0454 234.663 80.1058C234.675 80.1191 234.686 80.1337 234.695 80.1493H199.712L196.255 87.3266H200.687C199.552 90.2652 197.503 96.9048 197.292 107.014L195.684 112.777C196.198 112.414 196.749 112.107 197.329 111.863C197.339 112.167 197.348 112.467 197.363 112.776C197.363 112.776 197.41 112.419 197.53 111.77C200.926 110.299 209.238 108.188 224.179 112.776C231.169 114.918 236.025 119.509 244.131 128.112C244.124 128.11 236.047 110.142 224.189 105.741Z" fill="black"/>
<path d="M244.36 78.1476L251.53 70.0187C251.53 70.0187 241.43 65.6359 245.172 53.4994C245.172 53.4994 246.66 51.1405 247.675 50.6161L267.16 50.3531C267.16 50.3531 274.061 56.3844 268.783 64.7747L267.838 66.0798C266.407 66.076 264.979 66.2192 263.576 66.5071C259.108 67.3347 256.496 76.69 256.496 76.69C256.496 76.69 265.696 70.5263 279.507 79.647C284.227 82.7632 285.539 82.2891 291.024 90.8469C291.024 90.8469 292.029 92.1068 292.403 92.2191C292.57 92.2693 292.384 50.0565 292.384 50.0565L295.861 39.8652H284.959L280.491 50.0565C280.491 50.0565 285.963 48.666 291.838 91.0228C289.836 85.598 286.072 75.9444 280.613 71.684C276.081 68.1489 272.662 66.693 269.738 66.244C271.181 64.5904 272.833 62.4309 273.491 61.0922C273.836 60.3937 274.103 59.6593 274.287 58.9025C276.596 51.6984 274.622 47.7278 273.193 45.9703L276.299 39.8652H249.909C249.909 39.8652 240.572 53.4994 239.354 61.104C238.176 68.4488 239.268 71.8414 244.36 78.1476Z" fill="black"/>
<path d="M493.092 82.9004C485.585 62.811 461.93 67.4032 450.734 69.5594C452.985 62.6518 458.462 53.2378 465.286 48.5887H494.188L497.093 39.999H451.466L448.403 48.587H454.209C451.456 53.3668 447.747 63.0757 448.028 73.215L445.081 79.2464C445.081 79.2464 476.243 71.3168 486.595 89.1562C486.595 89.1562 490.315 94.2678 493.35 102.204C497.845 113.957 502.417 131.511 503.994 144.656C503.994 144.656 503.393 119.635 499.7 102.685C497.158 91.0159 494.907 87.7539 493.092 82.9004Z" fill="black"/>
<path d="M439.533 34.1112L440.371 35.0645C440.219 34.7964 439.198 32.0103 439.063 31.7372C424.614 2.46838 401.889 1.47656 401.889 1.47656C396.625 2.00263 391.361 8.84822 391.361 8.84822C414.272 7.79273 439.533 34.1112 439.533 34.1112Z" fill="black"/>
<path d="M529.76 62.5408C532.003 58.9856 533.811 53.6713 529.267 48.9099H545.572L548.135 39.6602H506.251L503.468 48.9099H521.497C524.755 51.8418 528.826 56.6518 528.212 61.9779C525.98 61.2971 523.657 60.9626 521.324 60.986C517.429 60.986 514.815 61.5707 511.637 63.0836C503.92 68.1097 501.372 73.5497 502.493 80.1473C503.979 88.9011 509.595 93.8569 519.141 93.5268C527.317 93.2437 533.538 87.2626 533.538 78.1603C533.539 77.3198 533.484 76.4801 533.37 75.6472C534.918 77.6292 537.312 80.6935 538.688 83.7008C550.08 108.642 553.124 146 553.124 146C553.124 146 554.215 70.3229 529.76 62.5408ZM519.498 88.0651C513.731 88.7353 505.788 84.5318 505.609 78.6395C505.527 75.9589 506.959 71.5643 512.419 69.2574C512.419 69.2574 523.085 63.7052 530.333 72.5243C531.774 74.193 530.879 86.7248 519.498 88.0651Z" fill="black"/>
<path d="M619.992 39.9992H609.254L605.6 50.1922C605.6 50.1922 611.012 46.9939 616.463 89.9321C614.753 87.2833 605.609 73.6943 594.968 69.1574C583.717 64.3658 576.978 65.5721 570.496 66.3562C573.306 60.7638 577.675 53.754 583.753 48.5838H595.838L598.936 39.9941H572.951L569.715 48.5871H574.794C572.961 51.9228 569.948 58.4618 567.834 68.4303L565.391 76.2844L565.036 77.2026C565.036 77.2026 574.561 70.032 594.938 77.2026C601.832 79.6285 607.629 82.5939 616.479 90.1666C616.479 90.1968 616.569 90.2437 616.569 90.2437C616.624 90.2923 616.569 50.1938 616.569 50.1938L619.992 39.9992Z" fill="black"/>
<path d="M63.6337 39.752L59.9362 48.6314H65.9675C63.8967 53.5671 61.2999 61.9926 60.9665 71.8907C58.4534 75.7105 58.043 81.0064 58.043 81.0064C70.6468 70.5872 89.4445 84.2466 92.9528 86.9774C92.9645 87.0729 94.7136 61.949 90.4129 48.6314H103.208L110.301 137.11L112.03 45.5571L113.815 39.752H63.6337ZM92.8405 86.19C79.471 62.2204 64.716 68.5885 64.716 68.5885C63.601 69.0667 62.614 69.8002 61.8343 70.7297C63.5633 65.8845 67.7702 55.6513 74.5505 48.6314H80.8867C84.7485 53.6626 89.8768 64.2342 92.8405 86.19Z" fill="black"/>
<path d="M124.954 56.4999C125.139 53.7523 130.212 39.8986 130.212 39.8986L123.219 39.8701L119.365 50.172C123.761 49.5086 124.954 56.4999 124.954 56.4999Z" fill="black"/>
<path d="M24.8367 76.4542C24.1967 68.1527 19.3297 60.9419 13.5983 58.9231C10.4586 57.8157 6.68065 60.3723 3.90456 62.9105C5.50622 59.9384 9.10995 53.9791 14.5482 49.1004C35.3631 57.8442 50.5219 80.9945 50.5219 80.9945C40.612 63.4717 32.6272 52.999 27.3699 47.3429H32.21L36.7603 39.8037H7.82662L2.9496 47.3429H8.66934C6.97218 50.2145 4.42392 55.5991 3.1255 63.641C2.10196 64.639 1.13543 65.694 0.230469 66.8007C0.758212 66.4656 2.43358 65.8089 7.68254 64.8154C15.9153 63.259 24.8367 76.4542 24.8367 76.4542Z" fill="black"/>
<path d="M0.236704 66.8008C-0.0631883 66.9951 0.00717828 67.0889 0.00717828 67.0889C0.00717828 67.0889 0.0875955 66.9834 0.236704 66.8008Z" fill="black"/>
<path d="M50.5211 80.9949V47.794L54.542 39.8008H44.6171L40.293 47.794C40.293 47.794 45.4062 46.5375 50.5211 80.9949Z" fill="black"/>
<path d="M45.8921 106.831C35.8197 95.2358 20.3945 97.3619 10.3741 99.9621C12.2623 96.4086 15.7454 91.5634 21.4685 89.171H46.8119L49.9515 82.2734H10.9923L7.30651 89.171H14.1286C11.8216 91.6321 7.87948 96.6264 8.11571 101.84L5.64453 104.946C5.64453 104.946 32.7555 99.0825 43.9202 112.789C55.0396 126.436 52.6506 129.02 55.0396 135.751C55.0396 135.751 54.537 125.726 51.4392 117.006C49.2998 111.006 47.8405 109.068 45.8921 106.831Z" fill="black"/>
<path d="M330.088 26.9961L334.365 19.5072C316.526 18.4064 323.027 10.0447 323.574 9.1567C324.122 8.26875 329.606 4.33665 339.872 9.59733C349.729 14.6486 369.163 34.0427 369.163 34.0427C367.153 28.1169 351.324 9.1567 343.642 2.98965C335.96 -3.17741 327.979 2.1084 327.979 2.1084C327.979 2.1084 323.078 5.9383 320.051 12.0199C314.132 23.905 330.088 26.9961 330.088 26.9961Z" fill="black"/>
<path d="M349.694 86.5024C350.029 82.1632 351.322 61.8375 347.025 48.53H360.132L365.57 93.7802C365.022 94.9044 363.936 98.6874 360.644 101.256C358.309 103.079 354.604 104.607 351.82 104.942C345.326 105.716 337.445 101.526 336.309 100.819C333.027 98.7779 328.375 96.1124 325.686 95.7622C322.084 95.2914 317.121 99.051 314.307 101.065L316.699 101.149C317.756 101.316 319.445 101.799 321.464 103.186C325.317 105.835 331.246 113.588 334.393 116.421C343.038 124.213 348.533 123.793 356.441 121.079C368.746 116.843 378.053 100.244 378.053 100.244C378.053 100.244 375.002 104.844 372.229 107.371C369.457 109.897 359.884 115.058 354.866 115.79C347.422 116.877 343.554 116.311 335.81 110.552C334.557 109.619 326.632 101.107 322.784 100.604C321.008 100.36 319.205 100.368 317.431 100.628C320.023 98.7846 322.521 97.1561 325.535 97.5498C328.013 97.8732 332.404 100.602 335.607 102.594C336.757 103.31 344.095 108.597 352.8 106.768C363.236 104.575 366.351 97.0506 366.905 94.9061L366.915 94.7168L368.507 48.525H368.703L371.43 39.6455H320.755L317.56 48.525H322.586C320.517 53.4607 317.919 61.8861 317.585 71.7859C315.081 75.6041 314.663 80.9 314.663 80.9C326.931 70.7589 345.063 83.4281 349.258 86.6297C349.258 86.6297 349.412 86.8425 349.583 86.7202C349.617 86.6943 349.644 86.6613 349.663 86.6237C349.682 86.586 349.693 86.5446 349.694 86.5024ZM349.459 86.0802C338.881 67.2172 321.335 68.4888 321.335 68.4888C320.22 68.9671 319.234 69.7005 318.455 70.6299C320.182 65.783 324.391 55.5515 331.169 48.5317H337.506C341.369 53.5595 346.496 64.1295 349.459 86.0802Z" fill="black"/>
<path d="M381.844 56.2333C382.028 53.4857 387.101 39.632 387.101 39.632L380.108 39.6035L376.59 49.9037C380.989 49.242 381.844 56.2333 381.844 56.2333Z" fill="black"/>
<path d="M306.423 56.4979C306.607 53.7503 311.68 39.8966 311.68 39.8966L304.687 39.8682L300.834 50.17C305.234 49.5066 306.423 56.4979 306.423 56.4979Z" fill="black"/>
<path d="M442.457 40.166H396.217L393.439 48.754H399.487C397.76 52.0897 394.922 58.6286 392.928 68.5971L390.633 76.4496L390.298 77.3677C390.298 77.3677 399.275 70.1971 418.479 77.3677C424.976 79.7937 430.438 82.7591 438.78 90.3318C438.86 90.429 438.867 90.4021 438.867 90.4021V90.2916C438.919 90.3402 438.867 50.359 438.867 50.359L442.457 40.166ZM418.499 69.3293C407.896 64.5377 401.546 65.744 395.436 66.528C398.085 60.9356 402.203 53.9259 407.931 48.7557H428.848C430.048 49.2298 434.39 53.5506 438.76 90.0989C437.141 87.4552 428.523 73.8612 418.494 69.3293H418.499Z" fill="black"/>
<path d="M553.339 50.1329C557.742 49.4628 558.596 56.4608 558.596 56.4608C558.78 53.7132 563.853 39.8595 563.853 39.8595L556.861 39.8311L553.339 50.1329Z" fill="black"/>
<path d="M636.397 39.8595L629.404 39.8311L625.886 50.1329C630.289 49.4628 631.143 56.4608 631.143 56.4608C631.299 54.1505 629.814 57.8229 636.397 39.8595Z" fill="black"/>
</svg>
