<svg width="462" height="146" viewBox="0 0 462 146" fill="none" xmlns="http://www.w3.org/2000/svg">
<path d="M118.514 39.4521H107.047L103.06 48.0459C103.06 48.0459 108.975 48.7856 114.921 92.2278C113.127 88.7498 108.42 77.7364 103.697 72.6577C99.8351 68.504 97.1373 64.6352 89.2159 61.4218C91.4721 57.8461 92.8572 53.5492 88.2891 48.7603H94.7192L98.9656 39.4572H66.1408L62.8364 48.7603H80.4772C83.7547 51.7091 87.8914 55.7078 87.2747 61.0713C85.2408 60.436 82.8936 59.9103 80.302 59.9153C76.3842 59.9255 73.7573 60.5051 70.5607 62.025C62.5146 66.5966 60.2364 73.5491 61.3637 80.1848C62.8584 88.9891 68.5067 93.9735 78.1064 93.6415C86.3311 93.3568 92.586 87.3411 92.586 78.1863C92.587 77.3409 92.5307 76.4964 92.4174 75.6587C92.6079 75.9047 92.1108 74.341 91.5547 72.9778C91.341 72.4396 91.0728 71.9247 90.7543 71.441C88.6564 68.622 95.6409 72.0561 102.192 78.4694C107.322 83.4874 115.445 93.2523 115.021 92.4266V49.7073L118.514 39.4521ZM78.4586 88.1348C72.6333 88.5207 64.6715 84.5827 64.4895 78.6547C64.4069 75.9587 65.8679 70.9895 71.3594 68.6624C71.3594 68.6624 80.9356 63.3696 89.3557 72.4992C90.8706 74.1405 90.933 87.3108 78.4586 88.1348Z" fill="black"/>
<path d="M317.081 82.5357C309.532 62.3303 285.739 66.949 274.478 69.1177C276.743 62.1702 282.251 52.702 289.115 48.026H318.183L321.105 39.3867H275.215L272.134 48.0226H277.973C275.206 52.83 271.474 62.5949 271.757 72.7844L268.793 78.8505C268.793 78.8505 300.135 70.8752 310.547 88.8176C310.547 88.8176 314.288 93.957 317.341 101.941C321.862 113.761 326.46 131.417 328.046 144.638C328.046 144.638 327.441 119.47 323.727 102.423C321.171 90.698 318.906 87.4173 317.081 82.5357Z" fill="black"/>
<path d="M263.214 33.4653L264.067 34.4224C263.912 34.1545 262.887 31.3523 262.749 31.0776C248.217 1.63984 225.361 0.640625 225.361 0.640625C220.067 1.17141 214.772 8.05483 214.772 8.05483C237.807 6.99494 263.214 33.4653 263.214 33.4653Z" fill="black"/>
<path d="M353.961 62.0576C356.217 58.4836 358.035 53.1386 353.465 48.3497H369.864L372.449 39.0449H330.323L327.524 48.3497H345.65C348.928 51.2985 353.022 56.1363 352.404 61.4931C350.159 60.8084 347.823 60.472 345.477 60.4955C341.559 60.4955 338.93 61.0836 335.734 62.6035C327.972 67.6586 325.411 73.13 326.537 79.7674C328.031 88.5718 333.681 93.5562 343.281 93.2242C351.506 92.9394 357.761 86.9221 357.761 77.7689C357.763 76.9235 357.706 76.079 357.592 75.2413C359.149 77.2331 361.559 80.3168 362.941 83.3414C374.399 108.427 377.461 146 377.461 146C377.461 146 378.559 69.8863 353.961 62.0576ZM343.64 87.7293C337.84 88.4134 329.853 84.1772 329.671 78.2492C329.588 75.5531 331.029 71.1349 336.521 68.8129C336.521 68.8129 347.248 63.2304 354.537 72.1005C355.986 73.7788 355.087 86.3812 343.64 87.7293Z" fill="black"/>
<path d="M153.136 27.152L157.438 19.6198C139.497 18.5127 146.035 10.1027 146.585 9.20958C147.134 8.31651 152.651 4.36164 162.977 9.651C172.89 14.7331 192.438 34.2393 192.438 34.2393C190.416 28.2793 174.496 9.20957 166.768 3.00692C159.041 -3.19574 151.016 2.12054 151.016 2.12054C151.016 2.12054 146.086 5.97262 143.041 12.0877C137.088 24.0431 153.136 27.152 153.136 27.152Z" fill="black"/>
<path d="M199.903 49.3487C204.332 48.6831 205.191 55.7131 205.191 55.7131C205.376 52.9513 210.479 39.0159 210.479 39.0159L203.445 38.9873L199.903 49.3487Z" fill="black"/>
<path d="M123.711 49.6155C128.139 48.9499 129.336 55.9799 129.336 55.9799C129.521 53.2182 134.625 39.2845 134.625 39.2845L127.59 39.2559L123.711 49.6155Z" fill="black"/>
<path d="M377.676 49.5801C382.104 48.9061 382.963 55.9445 382.963 55.9445C383.149 53.181 388.251 39.2474 388.251 39.2474L381.218 39.2188L377.676 49.5801Z" fill="black"/>
<path d="M454.18 39.2188L450.642 49.5801C455.07 48.9061 455.929 55.9445 455.929 55.9445C456.098 53.6191 454.596 57.3145 461.217 39.2474L454.18 39.2188Z" fill="black"/>
<path d="M5.46928 78.7677L12.6813 70.5918C12.6813 70.5918 2.52212 66.1821 6.27809 53.9756C6.27809 53.9756 7.77609 51.603 8.80566 51.0756L28.4028 50.811C28.4028 50.811 35.3435 56.8772 30.0356 65.3159L29.0835 66.6303C27.6442 66.6257 26.2082 66.7697 24.7984 67.06C20.3044 67.8907 17.6774 77.3 17.6774 77.3C17.6774 77.3 26.93 71.1024 40.8215 80.2758C45.5683 83.4083 46.8877 82.9314 52.4046 91.5386C52.4046 91.5386 53.4156 92.8075 53.7913 92.9187C53.9599 92.9709 53.7728 50.5145 53.7728 50.5145L57.2693 40.2627H46.3047L41.8107 50.5145C41.8107 50.5145 47.314 49.1142 53.2235 91.7155C51.2014 86.261 47.4236 76.5501 41.9337 72.2667C37.384 68.7113 33.9365 67.2453 30.996 66.7937C32.4452 65.1322 34.1083 62.9602 34.7705 61.6122C35.1171 60.9101 35.3855 60.1722 35.5709 59.4115C37.8929 52.1658 35.908 48.1706 34.4706 46.4046L37.5947 40.2627H11.0502C11.0502 40.2627 1.65939 53.9756 0.434357 61.624C-0.750231 69.0113 0.34842 72.4235 5.46928 78.7677Z" fill="black"/>
<path d="M172.299 86.3754C172.636 82.0128 173.935 61.5681 169.613 48.1838H182.795L188.267 93.6969C187.714 94.8259 186.622 98.6307 183.313 101.214C180.962 103.047 177.236 104.592 174.438 104.921C167.906 105.7 159.98 101.485 158.837 100.776C155.535 98.7234 150.857 96.0425 148.151 95.6886C144.528 95.2151 139.539 98.9964 136.706 101.022L139.112 101.106C140.174 101.275 141.874 101.76 143.903 103.155C147.778 105.819 153.744 113.618 156.908 116.467C165.601 124.304 171.13 123.881 179.082 121.151C191.46 116.892 200.819 100.198 200.819 100.198C200.819 100.198 197.749 104.825 194.96 107.364C192.171 109.904 182.544 115.095 177.498 115.832C170.009 116.925 166.12 116.356 158.332 110.564C157.07 109.626 149.101 101.064 145.229 100.558C143.442 100.313 141.63 100.321 139.845 100.582C142.454 98.7285 144.964 97.0923 147.998 97.4883C150.488 97.8135 154.906 100.557 158.128 102.562C159.284 103.28 166.663 108.599 175.418 106.759C185.914 104.552 189.047 96.9861 189.605 94.8276L189.615 94.6372L191.217 48.1788H191.416L194.159 39.248H143.192L139.978 48.1788H145.034C142.951 53.1446 140.339 61.617 140.004 71.574C137.476 75.4142 137.063 80.7423 137.063 80.7423C149.401 70.5427 167.64 83.2833 171.858 86.5051C171.858 86.5051 172.015 86.7192 172.186 86.5945C172.22 86.5684 172.247 86.5352 172.267 86.4974C172.286 86.4596 172.298 86.4179 172.299 86.3754ZM172.062 85.9507C161.422 66.9788 143.777 68.2578 143.777 68.2578C142.655 68.7382 141.662 69.4752 140.878 70.4096C142.617 65.5364 146.848 55.2442 153.668 48.1838H160.041C163.925 53.2457 169.083 63.8749 172.062 85.9507Z" fill="black"/>
<path d="M241.533 77.1215C248.057 79.5581 253.545 82.5339 261.913 90.125L262.036 90.2379C262.09 90.2868 262.036 49.9569 262.036 49.9569L265.649 39.7051H219.142L216.341 48.3443H222.426C220.687 51.6992 217.832 58.2759 215.827 68.3003L213.519 76.1981L213.182 77.1215C213.182 77.1215 222.217 69.9112 241.533 77.1215ZM230.917 48.3443H251.961C253.168 48.8195 257.535 53.1669 261.93 89.9262C260.312 87.2605 251.643 73.5947 241.556 69.0316C230.891 64.2124 224.505 65.4239 218.36 66.2142C221.015 60.5929 225.157 53.5427 230.918 48.3443H230.917Z" fill="black"/>
<path d="M445.031 39.7053H434.231L430.549 49.9571C430.549 49.9571 435.992 46.7387 441.475 89.9264C439.757 87.2607 430.558 73.595 419.856 69.0319C408.539 64.2126 401.764 65.4258 395.243 66.2144C398.07 60.5897 402.465 53.5395 408.576 48.3394H420.731L423.848 39.7002H397.718L394.463 48.3394H399.572C397.718 51.6927 394.697 58.2711 392.57 68.2955L390.12 76.1933L389.765 77.1167C389.765 77.1167 399.342 69.9064 419.838 77.1167C426.772 79.5567 432.602 82.5375 441.502 90.1556C441.502 90.1842 441.593 90.2331 441.593 90.2331C441.651 90.2803 441.593 49.9521 441.593 49.9521L445.031 39.7053Z" fill="black"/>
</svg>
