<svg width="679" height="680" viewBox="0 0 679 680" fill="none" xmlns="http://www.w3.org/2000/svg">
<path d="M167.03 512.321C165.981 512.584 165.031 513.108 164.168 512.994C152.905 511.52 141.651 509.946 130.392 508.409C116.362 506.501 103.386 501.106 91.0783 494.68C80.6308 489.227 70.3503 483.188 61.625 474.82C49.0546 462.774 35.5826 451.583 26.5185 436.408C22.3061 429.352 18.628 421.967 14.9404 414.611C13.099 410.938 11.7728 407.007 10.2414 403.162C3.76778 387.032 0.700314 370.159 0.113536 352.904C-0.438525 337.7 1.02443 322.49 4.46427 307.67C7.74164 293.554 12.4025 280.082 19.3198 267.521C24.4481 258.213 29.6289 248.758 37.3143 241.078C41.6602 236.732 45.9012 232.271 49.9228 227.61C60.0841 215.775 72.8215 207.412 86.0979 199.545C99.5938 191.55 114.13 186.121 129.185 182.767C146.064 179.013 163.362 176.976 180.808 179.218C186.632 179.967 192.553 180.234 198.292 181.408C212.261 184.251 225.843 188.746 238.751 194.798C257.923 203.772 274.215 216.38 289.047 231.131C292.658 234.728 295.759 238.864 298.874 242.924C306.896 253.438 313.747 264.795 319.306 276.795C327.774 294.856 331.772 313.828 333.651 333.893C286.747 337.595 246.77 356.315 215.089 390.477C183.56 424.457 166.987 465.231 167.03 512.321Z" fill="#C8102E"/>
<path d="M334.094 347.194C337.782 393.731 356.84 433.512 390.926 465.179C424.839 496.665 465.876 512.407 512.226 513.08C513.963 560.537 488.331 623.8 428.489 657.427C365.933 692.577 281.179 689.676 219.696 621.386C177.515 574.529 166.772 504.278 193.783 444.17C209.597 409.011 234.867 382.629 268.771 364.597C292.032 352.255 321.142 345.958 334.094 347.194Z" fill="#FF5C39"/>
<path d="M168.103 166.046C165.446 114.758 196.297 48.8624 260.175 17.3864C324.158 -14.1422 400.744 -2.31122 451.822 48.9817C505.729 103.146 513.439 180.935 482.683 241.669C450.501 305.213 388.03 331.942 346.145 331.975C341.851 285.749 323.389 246.23 289.199 214.42C255.008 182.609 214.382 167.081 168.103 166.046Z" fill="#8B1639"/>
<path d="M347.7 346.22C394.928 342.28 434.285 323.031 465.8 289.041C497.19 255.17 513.433 214.692 513.572 168.279C518.848 168.279 523.662 167.802 528.361 168.379C537.367 169.495 546.489 170.473 555.214 172.883C564.517 175.459 573.313 179.8 582.444 183.044C594.371 187.27 604.599 194.56 614.321 202.054C624.225 209.687 633.022 219.042 641.151 228.617C648.267 237.109 654.524 246.284 659.832 256.009C665.805 266.829 671.091 278.211 673.314 290.543C675.608 303.252 678.475 316.032 678.924 328.856C679.401 343.038 677.588 357.245 674.692 371.347C671.72 385.83 666.172 399.293 659.469 412.059C652.504 425.271 643.681 437.416 633.27 448.124C621.267 460.527 607.738 470.608 592.825 479.104C579.773 486.536 565.8 491.507 551.321 495.133C536.027 498.949 520.413 500.734 504.675 499.794C485.368 498.644 466.544 494.546 448.688 487.142C437.396 482.462 426.543 476.561 416.725 469.138C409.741 463.891 402.599 458.667 396.374 452.575C390.239 446.578 384.815 439.761 379.725 432.83C374.248 425.368 368.862 417.702 364.654 409.502C360.284 400.95 356.73 392.005 354.04 382.787C351.178 372.974 349.708 362.75 347.767 352.68C347.395 350.791 347.7 348.792 347.7 346.22Z" fill="#FFC72C"/>
<path d="M303.212 152.384C303.212 153.259 303.362 154.005 303.66 154.624C303.959 155.243 304.375 155.755 304.908 156.16C305.442 156.544 306.05 156.832 306.732 157.024C307.436 157.195 308.194 157.28 309.004 157.28C309.879 157.28 310.626 157.184 311.244 156.992C311.863 156.779 312.364 156.512 312.748 156.192C313.132 155.872 313.41 155.509 313.58 155.104C313.751 154.677 313.836 154.251 313.836 153.824C313.836 152.949 313.634 152.309 313.228 151.904C312.844 151.477 312.418 151.179 311.948 151.008C311.138 150.709 310.188 150.432 309.1 150.176C308.034 149.899 306.711 149.547 305.132 149.12C304.151 148.864 303.33 148.533 302.668 148.128C302.028 147.701 301.516 147.232 301.132 146.72C300.748 146.208 300.471 145.664 300.3 145.088C300.151 144.512 300.076 143.925 300.076 143.328C300.076 142.176 300.311 141.184 300.78 140.352C301.271 139.499 301.911 138.795 302.7 138.24C303.49 137.685 304.386 137.28 305.388 137.024C306.391 136.747 307.404 136.608 308.428 136.608C309.623 136.608 310.743 136.768 311.788 137.088C312.855 137.387 313.783 137.845 314.572 138.464C315.383 139.083 316.023 139.851 316.492 140.768C316.962 141.664 317.196 142.709 317.196 143.904H313.196C313.09 142.432 312.588 141.397 311.692 140.8C310.796 140.181 309.655 139.872 308.268 139.872C307.799 139.872 307.319 139.925 306.828 140.032C306.338 140.117 305.89 140.277 305.484 140.512C305.079 140.725 304.738 141.024 304.46 141.408C304.204 141.792 304.076 142.272 304.076 142.848C304.076 143.659 304.322 144.299 304.812 144.768C305.324 145.216 305.986 145.557 306.796 145.792C306.882 145.813 307.212 145.909 307.788 146.08C308.386 146.229 309.047 146.4 309.772 146.592C310.498 146.784 311.202 146.976 311.884 147.168C312.588 147.339 313.09 147.467 313.388 147.552C314.135 147.787 314.786 148.107 315.34 148.512C315.895 148.917 316.354 149.387 316.716 149.92C317.1 150.432 317.378 150.987 317.548 151.584C317.74 152.181 317.836 152.779 317.836 153.376C317.836 154.656 317.57 155.755 317.036 156.672C316.524 157.568 315.842 158.304 314.988 158.88C314.135 159.456 313.164 159.872 312.076 160.128C310.988 160.405 309.879 160.544 308.748 160.544C307.447 160.544 306.22 160.384 305.068 160.064C303.916 159.744 302.914 159.253 302.06 158.592C301.207 157.931 300.524 157.088 300.012 156.064C299.5 155.019 299.234 153.792 299.212 152.384H303.212ZM335.354 160H331.77V157.696H331.706C331.258 158.528 330.586 159.2 329.69 159.712C328.816 160.203 327.92 160.448 327.002 160.448C324.826 160.448 323.248 159.915 322.266 158.848C321.306 157.76 320.826 156.128 320.826 153.952V143.456H324.474V153.6C324.474 155.051 324.752 156.075 325.306 156.672C325.861 157.269 326.64 157.568 327.642 157.568C328.41 157.568 329.05 157.451 329.562 157.216C330.074 156.981 330.49 156.672 330.81 156.288C331.13 155.883 331.354 155.403 331.482 154.848C331.632 154.293 331.706 153.696 331.706 153.056V143.456H335.354V160ZM337.569 143.456H340.289V142.08C340.289 141.035 340.417 140.192 340.673 139.552C340.929 138.891 341.271 138.389 341.697 138.048C342.124 137.685 342.604 137.451 343.137 137.344C343.692 137.216 344.268 137.152 344.865 137.152C346.039 137.152 346.892 137.227 347.425 137.376V140.224C347.191 140.16 346.935 140.117 346.657 140.096C346.401 140.053 346.092 140.032 345.729 140.032C345.239 140.032 344.812 140.149 344.449 140.384C344.108 140.619 343.937 141.077 343.937 141.76V143.456H347.041V146.176H343.937V160H340.289V146.176H337.569V143.456ZM347.101 143.456H349.821V142.08C349.821 141.035 349.949 140.192 350.205 139.552C350.461 138.891 350.802 138.389 351.229 138.048C351.655 137.685 352.135 137.451 352.669 137.344C353.223 137.216 353.799 137.152 354.397 137.152C355.57 137.152 356.423 137.227 356.957 137.376V140.224C356.722 140.16 356.466 140.117 356.189 140.096C355.933 140.053 355.623 140.032 355.26 140.032C354.77 140.032 354.343 140.149 353.981 140.384C353.639 140.619 353.469 141.077 353.469 141.76V143.456H356.573V146.176H353.469V160H349.821V146.176H347.101V143.456ZM370.186 150.272C370.144 149.696 370.016 149.141 369.802 148.608C369.61 148.075 369.333 147.616 368.97 147.232C368.629 146.827 368.202 146.507 367.69 146.272C367.2 146.016 366.645 145.888 366.026 145.888C365.386 145.888 364.8 146.005 364.266 146.24C363.754 146.453 363.306 146.763 362.922 147.168C362.56 147.552 362.261 148.011 362.026 148.544C361.813 149.077 361.696 149.653 361.674 150.272H370.186ZM361.674 152.672C361.674 153.312 361.76 153.931 361.93 154.528C362.122 155.125 362.4 155.648 362.762 156.096C363.125 156.544 363.584 156.907 364.138 157.184C364.693 157.44 365.354 157.568 366.122 157.568C367.189 157.568 368.042 157.344 368.682 156.896C369.344 156.427 369.834 155.733 370.154 154.816H373.61C373.418 155.712 373.088 156.512 372.618 157.216C372.149 157.92 371.584 158.517 370.922 159.008C370.261 159.477 369.514 159.829 368.682 160.064C367.872 160.32 367.018 160.448 366.122 160.448C364.821 160.448 363.669 160.235 362.666 159.808C361.664 159.381 360.81 158.784 360.106 158.016C359.424 157.248 358.901 156.331 358.538 155.264C358.197 154.197 358.026 153.024 358.026 151.744C358.026 150.571 358.208 149.461 358.57 148.416C358.954 147.349 359.488 146.421 360.17 145.632C360.874 144.821 361.717 144.181 362.698 143.712C363.68 143.243 364.789 143.008 366.026 143.008C367.328 143.008 368.49 143.285 369.514 143.84C370.56 144.373 371.424 145.088 372.106 145.984C372.789 146.88 373.28 147.915 373.578 149.088C373.898 150.24 373.984 151.435 373.834 152.672H361.674ZM376.608 143.456H380.032V146.656H380.096C380.202 146.208 380.405 145.771 380.704 145.344C381.024 144.917 381.397 144.533 381.824 144.192C382.272 143.829 382.762 143.541 383.296 143.328C383.829 143.115 384.373 143.008 384.928 143.008C385.354 143.008 385.642 143.019 385.792 143.04C385.962 143.061 386.133 143.083 386.304 143.104V146.624C386.048 146.581 385.781 146.549 385.504 146.528C385.248 146.485 384.992 146.464 384.736 146.464C384.117 146.464 383.53 146.592 382.976 146.848C382.442 147.083 381.973 147.445 381.568 147.936C381.162 148.405 380.842 148.992 380.608 149.696C380.373 150.4 380.256 151.211 380.256 152.128V160H376.608V143.456ZM387.954 137.152H391.602V140.608H387.954V137.152ZM387.954 143.456H391.602V160H387.954V143.456ZM395.576 143.456H399.032V145.888L399.096 145.952C399.651 145.035 400.376 144.32 401.272 143.808C402.168 143.275 403.16 143.008 404.248 143.008C406.062 143.008 407.491 143.477 408.536 144.416C409.582 145.355 410.104 146.763 410.104 148.64V160H406.456V149.6C406.414 148.299 406.136 147.36 405.624 146.784C405.112 146.187 404.312 145.888 403.224 145.888C402.606 145.888 402.051 146.005 401.56 146.24C401.07 146.453 400.654 146.763 400.312 147.168C399.971 147.552 399.704 148.011 399.512 148.544C399.32 149.077 399.224 149.643 399.224 150.24V160H395.576V143.456ZM429.247 159.136C429.247 161.632 428.543 163.488 427.135 164.704C425.749 165.941 423.743 166.56 421.119 166.56C420.287 166.56 419.445 166.475 418.591 166.304C417.759 166.133 416.991 165.845 416.287 165.44C415.605 165.035 415.029 164.501 414.559 163.84C414.09 163.179 413.813 162.368 413.727 161.408H417.375C417.482 161.92 417.663 162.336 417.919 162.656C418.175 162.976 418.474 163.221 418.815 163.392C419.178 163.584 419.573 163.701 419.999 163.744C420.426 163.808 420.874 163.84 421.343 163.84C422.815 163.84 423.893 163.477 424.575 162.752C425.258 162.027 425.599 160.981 425.599 159.616V157.088H425.535C425.023 158.005 424.319 158.72 423.423 159.232C422.549 159.744 421.599 160 420.575 160C419.253 160 418.122 159.776 417.183 159.328C416.266 158.859 415.498 158.229 414.879 157.44C414.282 156.629 413.845 155.701 413.567 154.656C413.29 153.611 413.151 152.491 413.151 151.296C413.151 150.187 413.322 149.131 413.663 148.128C414.005 147.125 414.495 146.251 415.135 145.504C415.775 144.736 416.554 144.128 417.471 143.68C418.41 143.232 419.466 143.008 420.639 143.008C421.685 143.008 422.645 143.232 423.519 143.68C424.394 144.107 425.066 144.789 425.535 145.728H425.599V143.456H429.247V159.136ZM421.151 157.12C421.962 157.12 422.645 156.96 423.199 156.64C423.775 156.299 424.234 155.861 424.575 155.328C424.938 154.773 425.194 154.155 425.343 153.472C425.514 152.768 425.599 152.064 425.599 151.36C425.599 150.656 425.514 149.973 425.343 149.312C425.173 148.651 424.906 148.064 424.543 147.552C424.202 147.04 423.743 146.635 423.167 146.336C422.613 146.037 421.941 145.888 421.151 145.888C420.341 145.888 419.658 146.059 419.103 146.4C418.549 146.741 418.101 147.189 417.759 147.744C417.418 148.277 417.173 148.896 417.023 149.6C416.874 150.283 416.799 150.965 416.799 151.648C416.799 152.331 416.885 153.003 417.055 153.664C417.226 154.304 417.482 154.88 417.823 155.392C418.186 155.904 418.634 156.32 419.167 156.64C419.722 156.96 420.383 157.12 421.151 157.12Z" fill="white"/>
<path d="M264.13 109C273.41 109 279.37 103.52 279.37 94.96C279.37 86.48 273.41 81 264.13 81H252.77V109H264.13ZM256.73 84.52H263.93C270.85 84.52 275.17 88.44 275.17 95C275.17 101.52 270.85 105.44 263.97 105.44H256.73V84.52ZM296.898 109.4C304.298 109.4 308.898 104.84 308.898 97.4V81H304.978V97.28C304.978 102.76 301.858 105.84 296.898 105.84C291.898 105.84 288.858 102.76 288.858 97.28V81H284.858V97.4C284.858 104.84 289.538 109.4 296.898 109.4ZM324.699 94.72L338.259 81H333.099L319.699 94.6V81H315.699V109H319.699V95.04L333.579 109H338.739L324.699 94.72ZM352.707 94.72L366.267 81H361.107L347.707 94.6V81H343.707V109H347.707V95.04L361.587 109H366.747L352.707 94.72ZM392.155 93.24H375.715V81H371.715V109H375.715V96.8H392.155V109H396.115V81H392.155V93.24ZM430.185 109L417.905 81H412.985L400.745 109H404.905L407.465 103.2H423.465L426.025 109H430.185ZM415.465 85.04L421.865 99.6H409.065L415.465 85.04Z" fill="white"/>
<path d="M477.16 335.872C475.944 335.872 474.888 336.117 473.992 336.608C473.117 337.099 472.403 337.76 471.848 338.592C471.293 339.403 470.877 340.331 470.6 341.376C470.344 342.421 470.216 343.488 470.216 344.576C470.216 345.664 470.344 346.731 470.6 347.776C470.877 348.821 471.293 349.76 471.848 350.592C472.403 351.403 473.117 352.053 473.992 352.544C474.888 353.035 475.944 353.28 477.16 353.28C478.376 353.28 479.421 353.035 480.296 352.544C481.192 352.053 481.917 351.403 482.472 350.592C483.027 349.76 483.432 348.821 483.688 347.776C483.965 346.731 484.104 345.664 484.104 344.576C484.104 343.488 483.965 342.421 483.688 341.376C483.432 340.331 483.027 339.403 482.472 338.592C481.917 337.76 481.192 337.099 480.296 336.608C479.421 336.117 478.376 335.872 477.16 335.872ZM477.16 332.608C478.867 332.608 480.392 332.928 481.736 333.568C483.101 334.208 484.253 335.072 485.192 336.16C486.131 337.248 486.845 338.517 487.336 339.968C487.848 341.419 488.104 342.955 488.104 344.576C488.104 346.219 487.848 347.765 487.336 349.216C486.845 350.667 486.131 351.936 485.192 353.024C484.253 354.112 483.101 354.976 481.736 355.616C480.392 356.235 478.867 356.544 477.16 356.544C475.453 356.544 473.917 356.235 472.552 355.616C471.208 354.976 470.067 354.112 469.128 353.024C468.189 351.936 467.464 350.667 466.952 349.216C466.461 347.765 466.216 346.219 466.216 344.576C466.216 342.955 466.461 341.419 466.952 339.968C467.464 338.517 468.189 337.248 469.128 336.16C470.067 335.072 471.208 334.208 472.552 333.568C473.917 332.928 475.453 332.608 477.16 332.608ZM491.233 339.456H494.657V342.656H494.721C494.827 342.208 495.03 341.771 495.329 341.344C495.649 340.917 496.022 340.533 496.449 340.192C496.897 339.829 497.387 339.541 497.921 339.328C498.454 339.115 498.998 339.008 499.553 339.008C499.979 339.008 500.267 339.019 500.417 339.04C500.587 339.061 500.758 339.083 500.929 339.104V342.624C500.673 342.581 500.406 342.549 500.129 342.528C499.873 342.485 499.617 342.464 499.361 342.464C498.742 342.464 498.155 342.592 497.601 342.848C497.067 343.083 496.598 343.445 496.193 343.936C495.787 344.405 495.467 344.992 495.233 345.696C494.998 346.4 494.881 347.211 494.881 348.128V356H491.233V339.456ZM502.579 333.152H506.227V336.608H502.579V333.152ZM502.579 339.456H506.227V356H502.579V339.456ZM525.497 355.136C525.497 357.632 524.793 359.488 523.385 360.704C521.999 361.941 519.993 362.56 517.369 362.56C516.537 362.56 515.695 362.475 514.841 362.304C514.009 362.133 513.241 361.845 512.537 361.44C511.855 361.035 511.279 360.501 510.809 359.84C510.34 359.179 510.063 358.368 509.977 357.408H513.625C513.732 357.92 513.913 358.336 514.169 358.656C514.425 358.976 514.724 359.221 515.065 359.392C515.428 359.584 515.823 359.701 516.249 359.744C516.676 359.808 517.124 359.84 517.593 359.84C519.065 359.84 520.143 359.477 520.825 358.752C521.508 358.027 521.849 356.981 521.849 355.616V353.088H521.785C521.273 354.005 520.569 354.72 519.673 355.232C518.799 355.744 517.849 356 516.825 356C515.503 356 514.372 355.776 513.433 355.328C512.516 354.859 511.748 354.229 511.129 353.44C510.532 352.629 510.095 351.701 509.817 350.656C509.54 349.611 509.401 348.491 509.401 347.296C509.401 346.187 509.572 345.131 509.913 344.128C510.255 343.125 510.745 342.251 511.385 341.504C512.025 340.736 512.804 340.128 513.721 339.68C514.66 339.232 515.716 339.008 516.889 339.008C517.935 339.008 518.895 339.232 519.769 339.68C520.644 340.107 521.316 340.789 521.785 341.728H521.849V339.456H525.497V355.136ZM517.401 353.12C518.212 353.12 518.895 352.96 519.449 352.64C520.025 352.299 520.484 351.861 520.825 351.328C521.188 350.773 521.444 350.155 521.593 349.472C521.764 348.768 521.849 348.064 521.849 347.36C521.849 346.656 521.764 345.973 521.593 345.312C521.423 344.651 521.156 344.064 520.793 343.552C520.452 343.04 519.993 342.635 519.417 342.336C518.863 342.037 518.191 341.888 517.401 341.888C516.591 341.888 515.908 342.059 515.353 342.4C514.799 342.741 514.351 343.189 514.009 343.744C513.668 344.277 513.423 344.896 513.273 345.6C513.124 346.283 513.049 346.965 513.049 347.648C513.049 348.331 513.135 349.003 513.305 349.664C513.476 350.304 513.732 350.88 514.073 351.392C514.436 351.904 514.884 352.32 515.417 352.64C515.972 352.96 516.633 353.12 517.401 353.12ZM529.266 333.152H532.914V336.608H529.266V333.152ZM529.266 339.456H532.914V356H529.266V339.456ZM536.889 339.456H540.345V341.888L540.409 341.952C540.963 341.035 541.689 340.32 542.585 339.808C543.481 339.275 544.473 339.008 545.561 339.008C547.374 339.008 548.803 339.477 549.849 340.416C550.894 341.355 551.417 342.763 551.417 344.64V356H547.769V345.6C547.726 344.299 547.449 343.36 546.937 342.784C546.425 342.187 545.625 341.888 544.537 341.888C543.918 341.888 543.363 342.005 542.873 342.24C542.382 342.453 541.966 342.763 541.625 343.168C541.283 343.552 541.017 344.011 540.825 344.544C540.633 345.077 540.537 345.643 540.537 346.24V356H536.889V339.456ZM569.12 352.32C569.12 352.768 569.173 353.088 569.28 353.28C569.408 353.472 569.642 353.568 569.984 353.568C570.09 353.568 570.218 353.568 570.368 353.568C570.517 353.568 570.688 353.547 570.88 353.504V356.032C570.752 356.075 570.581 356.117 570.368 356.16C570.176 356.224 569.973 356.277 569.76 356.32C569.546 356.363 569.333 356.395 569.12 356.416C568.906 356.437 568.725 356.448 568.576 356.448C567.829 356.448 567.21 356.299 566.72 356C566.229 355.701 565.909 355.179 565.76 354.432C565.034 355.136 564.138 355.648 563.072 355.968C562.026 356.288 561.013 356.448 560.032 356.448C559.285 356.448 558.57 356.341 557.888 356.128C557.205 355.936 556.597 355.648 556.064 355.264C555.552 354.859 555.136 354.357 554.816 353.76C554.517 353.141 554.368 352.427 554.368 351.616C554.368 350.592 554.549 349.76 554.912 349.12C555.296 348.48 555.786 347.979 556.384 347.616C557.002 347.253 557.685 346.997 558.432 346.848C559.2 346.677 559.968 346.549 560.736 346.464C561.397 346.336 562.026 346.251 562.624 346.208C563.221 346.144 563.744 346.048 564.192 345.92C564.661 345.792 565.024 345.6 565.28 345.344C565.557 345.067 565.696 344.661 565.696 344.128C565.696 343.659 565.578 343.275 565.344 342.976C565.13 342.677 564.853 342.453 564.512 342.304C564.192 342.133 563.829 342.027 563.424 341.984C563.018 341.92 562.634 341.888 562.272 341.888C561.248 341.888 560.405 342.101 559.744 342.528C559.082 342.955 558.709 343.616 558.624 344.512H554.976C555.04 343.445 555.296 342.56 555.744 341.856C556.192 341.152 556.757 340.587 557.44 340.16C558.144 339.733 558.933 339.435 559.808 339.264C560.682 339.093 561.578 339.008 562.496 339.008C563.306 339.008 564.106 339.093 564.896 339.264C565.685 339.435 566.389 339.712 567.008 340.096C567.648 340.48 568.16 340.981 568.544 341.6C568.928 342.197 569.12 342.933 569.12 343.808V352.32ZM565.472 347.712C564.917 348.075 564.234 348.299 563.424 348.384C562.613 348.448 561.802 348.555 560.992 348.704C560.608 348.768 560.234 348.864 559.872 348.992C559.509 349.099 559.189 349.259 558.912 349.472C558.634 349.664 558.41 349.931 558.24 350.272C558.09 350.592 558.016 350.987 558.016 351.456C558.016 351.861 558.133 352.203 558.368 352.48C558.602 352.757 558.88 352.981 559.2 353.152C559.541 353.301 559.904 353.408 560.288 353.472C560.693 353.536 561.056 353.568 561.376 353.568C561.781 353.568 562.218 353.515 562.688 353.408C563.157 353.301 563.594 353.12 564 352.864C564.426 352.608 564.778 352.288 565.056 351.904C565.333 351.499 565.472 351.008 565.472 350.432V347.712ZM571.381 339.456H574.133V334.496H577.781V339.456H581.077V342.176H577.781V351.008C577.781 351.392 577.792 351.723 577.813 352C577.856 352.277 577.93 352.512 578.037 352.704C578.165 352.896 578.346 353.045 578.581 353.152C578.816 353.237 579.136 353.28 579.541 353.28C579.797 353.28 580.053 353.28 580.309 353.28C580.565 353.259 580.821 353.216 581.077 353.152V355.968C580.672 356.011 580.277 356.053 579.893 356.096C579.509 356.139 579.114 356.16 578.709 356.16C577.749 356.16 576.97 356.075 576.373 355.904C575.797 355.712 575.338 355.445 574.997 355.104C574.677 354.741 574.453 354.293 574.325 353.76C574.218 353.227 574.154 352.619 574.133 351.936V342.176H571.381V339.456ZM583.797 333.152H587.445V336.608H583.797V333.152ZM583.797 339.456H587.445V356H583.797V339.456ZM599.004 356.448C597.681 356.448 596.497 356.235 595.452 355.808C594.428 355.36 593.553 354.752 592.828 353.984C592.124 353.216 591.58 352.299 591.196 351.232C590.833 350.165 590.652 348.992 590.652 347.712C590.652 346.453 590.833 345.291 591.196 344.224C591.58 343.157 592.124 342.24 592.828 341.472C593.553 340.704 594.428 340.107 595.452 339.68C596.497 339.232 597.681 339.008 599.004 339.008C600.327 339.008 601.5 339.232 602.524 339.68C603.569 340.107 604.444 340.704 605.148 341.472C605.873 342.24 606.417 343.157 606.78 344.224C607.164 345.291 607.356 346.453 607.356 347.712C607.356 348.992 607.164 350.165 606.78 351.232C606.417 352.299 605.873 353.216 605.148 353.984C604.444 354.752 603.569 355.36 602.524 355.808C601.5 356.235 600.327 356.448 599.004 356.448ZM599.004 353.568C599.815 353.568 600.519 353.397 601.116 353.056C601.713 352.715 602.204 352.267 602.588 351.712C602.972 351.157 603.249 350.539 603.42 349.856C603.612 349.152 603.708 348.437 603.708 347.712C603.708 347.008 603.612 346.304 603.42 345.6C603.249 344.896 602.972 344.277 602.588 343.744C602.204 343.189 601.713 342.741 601.116 342.4C600.519 342.059 599.815 341.888 599.004 341.888C598.193 341.888 597.489 342.059 596.892 342.4C596.295 342.741 595.804 343.189 595.42 343.744C595.036 344.277 594.748 344.896 594.556 345.6C594.385 346.304 594.3 347.008 594.3 347.712C594.3 348.437 594.385 349.152 594.556 349.856C594.748 350.539 595.036 351.157 595.42 351.712C595.804 352.267 596.295 352.715 596.892 353.056C597.489 353.397 598.193 353.568 599.004 353.568ZM610.389 339.456H613.845V341.888L613.909 341.952C614.463 341.035 615.189 340.32 616.085 339.808C616.981 339.275 617.973 339.008 619.061 339.008C620.874 339.008 622.303 339.477 623.349 340.416C624.394 341.355 624.917 342.763 624.917 344.64V356H621.269V345.6C621.226 344.299 620.949 343.36 620.437 342.784C619.925 342.187 619.125 341.888 618.037 341.888C617.418 341.888 616.863 342.005 616.373 342.24C615.882 342.453 615.466 342.763 615.125 343.168C614.783 343.552 614.517 344.011 614.325 344.544C614.133 345.077 614.037 345.643 614.037 346.24V356H610.389V339.456Z" fill="white"/>
<path d="M409.14 416.4C415.22 416.4 420.7 413.8 420.7 408.36C420.7 403.28 416.74 401.2 409.94 399.88C404.98 398.8 402.78 398 402.78 395.4C402.78 392.12 405.78 391.2 409.54 391.2C412.42 391.2 415.18 391.88 418.3 393.36L419.02 389.68C416.02 388.24 412.82 387.6 409.54 387.6C403.62 387.6 398.58 390.2 398.58 395.56C398.58 400.12 402.18 402.12 408.9 403.4C413.74 404.4 416.46 405.16 416.46 408.48C416.46 411.92 413.02 412.76 409.1 412.76C405.78 412.76 401.38 411.96 398.18 410.24L397.78 413.88C400.66 415.56 404.78 416.4 409.14 416.4ZM452.197 416L439.917 388H434.997L422.757 416H426.917L429.477 410.2H445.477L448.037 416H452.197ZM437.477 392.04L443.877 406.6H431.077L437.477 392.04ZM481.292 388L471.252 410.04L461.292 388H457.172L455.572 416H459.572L460.692 396.04L469.972 416H472.532L481.852 396.04L482.932 416H486.932L485.332 388H481.292ZM504.496 416.4C511.896 416.4 516.496 411.84 516.496 404.4V388H512.576V404.28C512.576 409.76 509.456 412.84 504.496 412.84C499.496 412.84 496.456 409.76 496.456 404.28V388H492.456V404.4C492.456 411.84 497.136 416.4 504.496 416.4ZM534.657 416C543.937 416 549.897 410.52 549.897 401.96C549.897 393.48 543.937 388 534.657 388H523.297V416H534.657ZM527.257 391.52H534.457C541.377 391.52 545.697 395.44 545.697 402C545.697 408.52 541.377 412.44 534.497 412.44H527.257V391.52ZM580.556 416L568.276 388H563.356L551.116 416H555.276L557.836 410.2H573.836L576.396 416H580.556ZM565.836 392.04L572.236 406.6H559.436L565.836 392.04ZM599.929 388L590.689 403L581.409 388H577.049L588.649 406.32V416H592.649V406.44L604.289 388H599.929ZM630.205 416L617.925 388H613.005L600.765 416H604.925L607.485 410.2H623.485L626.045 416H630.205ZM615.485 392.04L621.885 406.6H609.085L615.485 392.04Z" fill="white"/>
<path d="M254.856 526.416C254.685 525.755 254.451 525.147 254.152 524.592C253.853 524.037 253.469 523.557 253 523.152C252.531 522.747 251.976 522.437 251.336 522.224C250.717 521.989 249.992 521.872 249.16 521.872C247.944 521.872 246.888 522.117 245.992 522.608C245.117 523.099 244.403 523.76 243.848 524.592C243.293 525.403 242.877 526.331 242.6 527.376C242.344 528.421 242.216 529.488 242.216 530.576C242.216 531.664 242.344 532.731 242.6 533.776C242.877 534.821 243.293 535.76 243.848 536.592C244.403 537.403 245.117 538.053 245.992 538.544C246.888 539.035 247.944 539.28 249.16 539.28C250.056 539.28 250.845 539.131 251.528 538.832C252.211 538.512 252.797 538.085 253.288 537.552C253.779 536.997 254.163 536.357 254.44 535.632C254.717 534.907 254.899 534.128 254.984 533.296H258.888C258.803 534.661 258.504 535.909 257.992 537.04C257.501 538.171 256.829 539.152 255.976 539.984C255.123 540.795 254.12 541.424 252.968 541.872C251.816 542.32 250.547 542.544 249.16 542.544C247.453 542.544 245.917 542.235 244.552 541.616C243.208 540.976 242.067 540.112 241.128 539.024C240.189 537.936 239.464 536.667 238.952 535.216C238.461 533.765 238.216 532.219 238.216 530.576C238.216 528.955 238.461 527.419 238.952 525.968C239.464 524.517 240.189 523.248 241.128 522.16C242.067 521.072 243.208 520.208 244.552 519.568C245.917 518.928 247.453 518.608 249.16 518.608C250.44 518.608 251.645 518.789 252.776 519.152C253.907 519.493 254.899 520.005 255.752 520.688C256.627 521.349 257.331 522.16 257.864 523.12C258.397 524.08 258.728 525.179 258.856 526.416H254.856ZM273.374 532.272C273.331 531.696 273.203 531.141 272.99 530.608C272.798 530.075 272.52 529.616 272.158 529.232C271.816 528.827 271.39 528.507 270.878 528.272C270.387 528.016 269.832 527.888 269.214 527.888C268.574 527.888 267.987 528.005 267.454 528.24C266.942 528.453 266.494 528.763 266.11 529.168C265.747 529.552 265.448 530.011 265.214 530.544C265 531.077 264.883 531.653 264.862 532.272H273.374ZM264.862 534.672C264.862 535.312 264.947 535.931 265.118 536.528C265.31 537.125 265.587 537.648 265.95 538.096C266.312 538.544 266.771 538.907 267.326 539.184C267.88 539.44 268.542 539.568 269.31 539.568C270.376 539.568 271.23 539.344 271.87 538.896C272.531 538.427 273.022 537.733 273.342 536.816H276.798C276.606 537.712 276.275 538.512 275.806 539.216C275.336 539.92 274.771 540.517 274.11 541.008C273.448 541.477 272.702 541.829 271.87 542.064C271.059 542.32 270.206 542.448 269.31 542.448C268.008 542.448 266.856 542.235 265.854 541.808C264.851 541.381 263.998 540.784 263.294 540.016C262.611 539.248 262.088 538.331 261.726 537.264C261.384 536.197 261.214 535.024 261.214 533.744C261.214 532.571 261.395 531.461 261.758 530.416C262.142 529.349 262.675 528.421 263.358 527.632C264.062 526.821 264.904 526.181 265.886 525.712C266.867 525.243 267.976 525.008 269.214 525.008C270.515 525.008 271.678 525.285 272.702 525.84C273.747 526.373 274.611 527.088 275.294 527.984C275.976 528.88 276.467 529.915 276.766 531.088C277.086 532.24 277.171 533.435 277.022 534.672H264.862ZM282.547 536.688C282.654 537.755 283.059 538.501 283.763 538.928C284.467 539.355 285.31 539.568 286.291 539.568C286.632 539.568 287.016 539.547 287.443 539.504C287.891 539.44 288.307 539.333 288.691 539.184C289.075 539.035 289.384 538.821 289.619 538.544C289.875 538.245 289.992 537.861 289.971 537.392C289.95 536.923 289.779 536.539 289.459 536.24C289.139 535.941 288.723 535.707 288.211 535.536C287.72 535.344 287.155 535.184 286.515 535.056C285.875 534.928 285.224 534.789 284.563 534.64C283.88 534.491 283.219 534.309 282.579 534.096C281.96 533.883 281.395 533.595 280.883 533.232C280.392 532.869 279.998 532.411 279.699 531.856C279.4 531.28 279.251 530.576 279.251 529.744C279.251 528.848 279.464 528.101 279.891 527.504C280.339 526.885 280.894 526.395 281.555 526.032C282.238 525.648 282.984 525.381 283.795 525.232C284.627 525.083 285.416 525.008 286.163 525.008C287.016 525.008 287.827 525.104 288.595 525.296C289.384 525.467 290.088 525.755 290.707 526.16C291.347 526.565 291.87 527.099 292.275 527.76C292.702 528.4 292.968 529.179 293.075 530.096H289.267C289.096 529.221 288.691 528.635 288.051 528.336C287.432 528.037 286.718 527.888 285.907 527.888C285.651 527.888 285.342 527.909 284.979 527.952C284.638 527.995 284.307 528.08 283.987 528.208C283.688 528.315 283.432 528.485 283.219 528.72C283.006 528.933 282.899 529.221 282.899 529.584C282.899 530.032 283.048 530.395 283.347 530.672C283.667 530.949 284.072 531.184 284.563 531.376C285.075 531.547 285.651 531.696 286.291 531.824C286.931 531.952 287.592 532.091 288.275 532.24C288.936 532.389 289.587 532.571 290.227 532.784C290.867 532.997 291.432 533.285 291.923 533.648C292.435 534.011 292.84 534.469 293.139 535.024C293.459 535.579 293.619 536.261 293.619 537.072C293.619 538.053 293.395 538.885 292.947 539.568C292.499 540.251 291.912 540.805 291.187 541.232C290.483 541.659 289.694 541.968 288.819 542.16C287.944 542.352 287.08 542.448 286.227 542.448C285.182 542.448 284.211 542.331 283.315 542.096C282.44 541.861 281.672 541.509 281.011 541.04C280.371 540.549 279.859 539.952 279.475 539.248C279.112 538.523 278.92 537.669 278.899 536.688H282.547ZM299.141 536.688C299.247 537.755 299.653 538.501 300.357 538.928C301.061 539.355 301.903 539.568 302.885 539.568C303.226 539.568 303.61 539.547 304.037 539.504C304.485 539.44 304.901 539.333 305.285 539.184C305.669 539.035 305.978 538.821 306.213 538.544C306.469 538.245 306.586 537.861 306.565 537.392C306.543 536.923 306.373 536.539 306.053 536.24C305.733 535.941 305.317 535.707 304.805 535.536C304.314 535.344 303.749 535.184 303.109 535.056C302.469 534.928 301.818 534.789 301.157 534.64C300.474 534.491 299.813 534.309 299.173 534.096C298.554 533.883 297.989 533.595 297.477 533.232C296.986 532.869 296.591 532.411 296.293 531.856C295.994 531.28 295.845 530.576 295.845 529.744C295.845 528.848 296.058 528.101 296.485 527.504C296.933 526.885 297.487 526.395 298.149 526.032C298.831 525.648 299.578 525.381 300.389 525.232C301.221 525.083 302.01 525.008 302.757 525.008C303.61 525.008 304.421 525.104 305.189 525.296C305.978 525.467 306.682 525.755 307.301 526.16C307.941 526.565 308.463 527.099 308.869 527.76C309.295 528.4 309.562 529.179 309.669 530.096H305.861C305.69 529.221 305.285 528.635 304.645 528.336C304.026 528.037 303.311 527.888 302.501 527.888C302.245 527.888 301.935 527.909 301.573 527.952C301.231 527.995 300.901 528.08 300.581 528.208C300.282 528.315 300.026 528.485 299.813 528.72C299.599 528.933 299.493 529.221 299.493 529.584C299.493 530.032 299.642 530.395 299.941 530.672C300.261 530.949 300.666 531.184 301.157 531.376C301.669 531.547 302.245 531.696 302.885 531.824C303.525 531.952 304.186 532.091 304.869 532.24C305.53 532.389 306.181 532.571 306.821 532.784C307.461 532.997 308.026 533.285 308.517 533.648C309.029 534.011 309.434 534.469 309.733 535.024C310.053 535.579 310.213 536.261 310.213 537.072C310.213 538.053 309.989 538.885 309.541 539.568C309.093 540.251 308.506 540.805 307.781 541.232C307.077 541.659 306.287 541.968 305.413 542.16C304.538 542.352 303.674 542.448 302.821 542.448C301.775 542.448 300.805 542.331 299.909 542.096C299.034 541.861 298.266 541.509 297.605 541.04C296.965 540.549 296.453 539.952 296.069 539.248C295.706 538.523 295.514 537.669 295.493 536.688H299.141ZM326.839 538.32C326.839 538.768 326.892 539.088 326.999 539.28C327.127 539.472 327.361 539.568 327.703 539.568C327.809 539.568 327.937 539.568 328.087 539.568C328.236 539.568 328.407 539.547 328.599 539.504V542.032C328.471 542.075 328.3 542.117 328.087 542.16C327.895 542.224 327.692 542.277 327.479 542.32C327.265 542.363 327.052 542.395 326.839 542.416C326.625 542.437 326.444 542.448 326.295 542.448C325.548 542.448 324.929 542.299 324.439 542C323.948 541.701 323.628 541.179 323.479 540.432C322.753 541.136 321.857 541.648 320.791 541.968C319.745 542.288 318.732 542.448 317.751 542.448C317.004 542.448 316.289 542.341 315.607 542.128C314.924 541.936 314.316 541.648 313.783 541.264C313.271 540.859 312.855 540.357 312.535 539.76C312.236 539.141 312.087 538.427 312.087 537.616C312.087 536.592 312.268 535.76 312.631 535.12C313.015 534.48 313.505 533.979 314.103 533.616C314.721 533.253 315.404 532.997 316.151 532.848C316.919 532.677 317.687 532.549 318.455 532.464C319.116 532.336 319.745 532.251 320.343 532.208C320.94 532.144 321.463 532.048 321.911 531.92C322.38 531.792 322.743 531.6 322.999 531.344C323.276 531.067 323.415 530.661 323.415 530.128C323.415 529.659 323.297 529.275 323.063 528.976C322.849 528.677 322.572 528.453 322.231 528.304C321.911 528.133 321.548 528.027 321.143 527.984C320.737 527.92 320.353 527.888 319.991 527.888C318.967 527.888 318.124 528.101 317.463 528.528C316.801 528.955 316.428 529.616 316.343 530.512H312.695C312.759 529.445 313.015 528.56 313.463 527.856C313.911 527.152 314.476 526.587 315.159 526.16C315.863 525.733 316.652 525.435 317.527 525.264C318.401 525.093 319.297 525.008 320.215 525.008C321.025 525.008 321.825 525.093 322.615 525.264C323.404 525.435 324.108 525.712 324.727 526.096C325.367 526.48 325.879 526.981 326.263 527.6C326.647 528.197 326.839 528.933 326.839 529.808V538.32ZM323.191 533.712C322.636 534.075 321.953 534.299 321.143 534.384C320.332 534.448 319.521 534.555 318.711 534.704C318.327 534.768 317.953 534.864 317.591 534.992C317.228 535.099 316.908 535.259 316.631 535.472C316.353 535.664 316.129 535.931 315.959 536.272C315.809 536.592 315.735 536.987 315.735 537.456C315.735 537.861 315.852 538.203 316.087 538.48C316.321 538.757 316.599 538.981 316.919 539.152C317.26 539.301 317.623 539.408 318.007 539.472C318.412 539.536 318.775 539.568 319.095 539.568C319.5 539.568 319.937 539.515 320.407 539.408C320.876 539.301 321.313 539.12 321.719 538.864C322.145 538.608 322.497 538.288 322.775 537.904C323.052 537.499 323.191 537.008 323.191 536.432V533.712ZM329.1 525.456H331.852V520.496H335.5V525.456H338.796V528.176H335.5V537.008C335.5 537.392 335.51 537.723 335.532 538C335.574 538.277 335.649 538.512 335.756 538.704C335.884 538.896 336.065 539.045 336.3 539.152C336.534 539.237 336.854 539.28 337.26 539.28C337.516 539.28 337.772 539.28 338.028 539.28C338.284 539.259 338.54 539.216 338.796 539.152V541.968C338.39 542.011 337.996 542.053 337.612 542.096C337.228 542.139 336.833 542.16 336.428 542.16C335.468 542.16 334.689 542.075 334.092 541.904C333.516 541.712 333.057 541.445 332.716 541.104C332.396 540.741 332.172 540.293 332.044 539.76C331.937 539.227 331.873 538.619 331.852 537.936V528.176H329.1V525.456ZM341.516 519.152H345.164V522.608H341.516V519.152ZM341.516 525.456H345.164V542H341.516V525.456ZM356.723 542.448C355.4 542.448 354.216 542.235 353.171 541.808C352.147 541.36 351.272 540.752 350.547 539.984C349.843 539.216 349.299 538.299 348.915 537.232C348.552 536.165 348.371 534.992 348.371 533.712C348.371 532.453 348.552 531.291 348.915 530.224C349.299 529.157 349.843 528.24 350.547 527.472C351.272 526.704 352.147 526.107 353.171 525.68C354.216 525.232 355.4 525.008 356.723 525.008C358.045 525.008 359.219 525.232 360.243 525.68C361.288 526.107 362.163 526.704 362.867 527.472C363.592 528.24 364.136 529.157 364.499 530.224C364.883 531.291 365.075 532.453 365.075 533.712C365.075 534.992 364.883 536.165 364.499 537.232C364.136 538.299 363.592 539.216 362.867 539.984C362.163 540.752 361.288 541.36 360.243 541.808C359.219 542.235 358.045 542.448 356.723 542.448ZM356.723 539.568C357.533 539.568 358.237 539.397 358.835 539.056C359.432 538.715 359.923 538.267 360.307 537.712C360.691 537.157 360.968 536.539 361.139 535.856C361.331 535.152 361.427 534.437 361.427 533.712C361.427 533.008 361.331 532.304 361.139 531.6C360.968 530.896 360.691 530.277 360.307 529.744C359.923 529.189 359.432 528.741 358.835 528.4C358.237 528.059 357.533 527.888 356.723 527.888C355.912 527.888 355.208 528.059 354.611 528.4C354.013 528.741 353.523 529.189 353.139 529.744C352.755 530.277 352.467 530.896 352.275 531.6C352.104 532.304 352.019 533.008 352.019 533.712C352.019 534.437 352.104 535.152 352.275 535.856C352.467 536.539 352.755 537.157 353.139 537.712C353.523 538.267 354.013 538.715 354.611 539.056C355.208 539.397 355.912 539.568 356.723 539.568ZM368.108 525.456H371.564V527.888L371.628 527.952C372.182 527.035 372.908 526.32 373.804 525.808C374.7 525.275 375.692 525.008 376.78 525.008C378.593 525.008 380.022 525.477 381.068 526.416C382.113 527.355 382.635 528.763 382.635 530.64V542H378.988V531.6C378.945 530.299 378.668 529.36 378.156 528.784C377.644 528.187 376.844 527.888 375.756 527.888C375.137 527.888 374.582 528.005 374.092 528.24C373.601 528.453 373.185 528.763 372.844 529.168C372.502 529.552 372.236 530.011 372.044 530.544C371.852 531.077 371.756 531.643 371.756 532.24V542H368.108V525.456Z" fill="white"/>
<path d="M244.8 598V576.4L262.52 598H266.12V570H262.12V591.4L244.56 570H240.84V598H244.8ZM277.769 598V570H273.809V598H277.769ZM308.53 598L300.73 587.76C305.53 586.68 308.21 583.68 308.21 579.08C308.21 573.28 303.93 570 296.53 570H285.41V598H289.37V588.16H296.01L303.49 598H308.53ZM296.45 573.52C301.45 573.52 304.25 575.32 304.25 579.16C304.25 583.04 301.45 584.64 296.41 584.64H289.37V573.52H296.45ZM327.247 598.4C335.767 598.4 341.927 592.36 341.927 584C341.927 575.6 335.767 569.6 327.247 569.6C318.767 569.6 312.607 575.64 312.607 584C312.607 592.4 318.767 598.4 327.247 598.4ZM327.247 594.76C321.127 594.76 316.767 590.4 316.767 584C316.767 577.6 321.127 573.2 327.247 573.2C333.407 573.2 337.727 577.6 337.727 584C337.727 590.4 333.407 594.76 327.247 594.76ZM359.7 598C368.98 598 374.94 592.52 374.94 583.96C374.94 575.48 368.98 570 359.7 570H348.34V598H359.7ZM352.3 573.52H359.5C366.42 573.52 370.74 577.44 370.74 584C370.74 590.52 366.42 594.44 359.54 594.44H352.3V573.52ZM401.749 582.24H385.309V570H381.309V598H385.309V585.8H401.749V598H405.709V570H401.749V582.24ZM439.779 598L427.499 570H422.579L410.339 598H414.499L417.059 592.2H433.059L435.619 598H439.779ZM425.059 574.04L431.459 588.6H418.659L425.059 574.04Z" fill="white"/>
<path d="M62.432 314.152H72.512C74.1333 314.152 75.456 314.387 76.48 314.856C77.504 315.325 78.2933 315.912 78.848 316.616C79.4027 317.32 79.776 318.088 79.968 318.92C80.1813 319.752 80.288 320.52 80.288 321.224C80.288 321.928 80.1813 322.696 79.968 323.528C79.776 324.339 79.4027 325.096 78.848 325.8C78.2933 326.504 77.504 327.091 76.48 327.56C75.456 328.008 74.1333 328.232 72.512 328.232H66.432V337H62.432V314.152ZM66.432 324.968H72.288C72.736 324.968 73.1947 324.904 73.664 324.776C74.1333 324.648 74.56 324.445 74.944 324.168C75.3493 323.869 75.6693 323.485 75.904 323.016C76.16 322.525 76.288 321.917 76.288 321.192C76.288 320.445 76.1813 319.827 75.968 319.336C75.7547 318.845 75.4667 318.461 75.104 318.184C74.7413 317.885 74.3253 317.683 73.856 317.576C73.3867 317.469 72.8853 317.416 72.352 317.416H66.432V324.968ZM97.1198 333.32C97.1198 333.768 97.1731 334.088 97.2798 334.28C97.4078 334.472 97.6424 334.568 97.9838 334.568C98.0904 334.568 98.2184 334.568 98.3678 334.568C98.5171 334.568 98.6878 334.547 98.8798 334.504V337.032C98.7518 337.075 98.5811 337.117 98.3678 337.16C98.1758 337.224 97.9731 337.277 97.7598 337.32C97.5464 337.363 97.3331 337.395 97.1198 337.416C96.9064 337.437 96.7251 337.448 96.5758 337.448C95.8291 337.448 95.2104 337.299 94.7198 337C94.2291 336.701 93.9091 336.179 93.7598 335.432C93.0344 336.136 92.1384 336.648 91.0718 336.968C90.0264 337.288 89.0131 337.448 88.0318 337.448C87.2851 337.448 86.5704 337.341 85.8878 337.128C85.2051 336.936 84.5971 336.648 84.0638 336.264C83.5518 335.859 83.1358 335.357 82.8158 334.76C82.5171 334.141 82.3678 333.427 82.3678 332.616C82.3678 331.592 82.5491 330.76 82.9118 330.12C83.2958 329.48 83.7864 328.979 84.3838 328.616C85.0024 328.253 85.6851 327.997 86.4318 327.848C87.1998 327.677 87.9678 327.549 88.7358 327.464C89.3971 327.336 90.0264 327.251 90.6238 327.208C91.2211 327.144 91.7438 327.048 92.1918 326.92C92.6611 326.792 93.0238 326.6 93.2798 326.344C93.5571 326.067 93.6958 325.661 93.6958 325.128C93.6958 324.659 93.5784 324.275 93.3438 323.976C93.1304 323.677 92.8531 323.453 92.5118 323.304C92.1918 323.133 91.8291 323.027 91.4238 322.984C91.0184 322.92 90.6344 322.888 90.2718 322.888C89.2478 322.888 88.4051 323.101 87.7438 323.528C87.0824 323.955 86.7091 324.616 86.6238 325.512H82.9758C83.0398 324.445 83.2958 323.56 83.7438 322.856C84.1918 322.152 84.7571 321.587 85.4398 321.16C86.1438 320.733 86.9331 320.435 87.8078 320.264C88.6824 320.093 89.5784 320.008 90.4958 320.008C91.3064 320.008 92.1064 320.093 92.8958 320.264C93.6851 320.435 94.3891 320.712 95.0078 321.096C95.6478 321.48 96.1598 321.981 96.5438 322.6C96.9278 323.197 97.1198 323.933 97.1198 324.808V333.32ZM93.4718 328.712C92.9171 329.075 92.2344 329.299 91.4238 329.384C90.6131 329.448 89.8024 329.555 88.9918 329.704C88.6078 329.768 88.2344 329.864 87.8718 329.992C87.5091 330.099 87.1891 330.259 86.9118 330.472C86.6344 330.664 86.4104 330.931 86.2398 331.272C86.0904 331.592 86.0158 331.987 86.0158 332.456C86.0158 332.861 86.1331 333.203 86.3678 333.48C86.6024 333.757 86.8798 333.981 87.1998 334.152C87.5411 334.301 87.9038 334.408 88.2878 334.472C88.6931 334.536 89.0558 334.568 89.3758 334.568C89.7811 334.568 90.2184 334.515 90.6878 334.408C91.1571 334.301 91.5944 334.12 91.9998 333.864C92.4264 333.608 92.7784 333.288 93.0558 332.904C93.3331 332.499 93.4718 332.008 93.4718 331.432V328.712ZM99.381 320.456H102.133V315.496H105.781V320.456H109.077V323.176H105.781V332.008C105.781 332.392 105.792 332.723 105.813 333C105.856 333.277 105.93 333.512 106.037 333.704C106.165 333.896 106.346 334.045 106.581 334.152C106.816 334.237 107.136 334.28 107.541 334.28C107.797 334.28 108.053 334.28 108.309 334.28C108.565 334.259 108.821 334.216 109.077 334.152V336.968C108.672 337.011 108.277 337.053 107.893 337.096C107.509 337.139 107.114 337.16 106.709 337.16C105.749 337.16 104.97 337.075 104.373 336.904C103.797 336.712 103.338 336.445 102.997 336.104C102.677 335.741 102.453 335.293 102.325 334.76C102.218 334.227 102.154 333.619 102.133 332.936V323.176H99.381V320.456ZM111.701 314.152H115.349V322.632H115.413C115.861 321.885 116.523 321.267 117.397 320.776C118.293 320.264 119.285 320.008 120.373 320.008C122.187 320.008 123.616 320.477 124.661 321.416C125.707 322.355 126.229 323.763 126.229 325.64V337H122.581V326.6C122.539 325.299 122.261 324.36 121.749 323.784C121.237 323.187 120.437 322.888 119.349 322.888C118.731 322.888 118.176 323.005 117.685 323.24C117.195 323.453 116.779 323.763 116.437 324.168C116.096 324.552 115.829 325.011 115.637 325.544C115.445 326.077 115.349 326.643 115.349 327.24V337H111.701V314.152Z" fill="white"/>
<path d="M88.28 260L78.24 282.04L68.28 260H64.16L62.56 288H66.56L67.68 268.04L76.96 288H79.52L88.84 268.04L89.92 288H93.92L92.32 260H88.28ZM126.724 288L114.444 260H109.524L97.2844 288H101.444L104.004 282.2H120.004L122.564 288H126.724ZM112.004 264.04L118.404 278.6H105.604L112.004 264.04ZM146.426 276.92H150.386L150.346 282.76C148.266 283.96 146.346 284.76 142.866 284.76C136.666 284.76 132.306 280.8 132.306 274.04C132.306 267.24 136.986 263.2 143.106 263.2C146.066 263.2 148.906 264 151.786 265.76L153.426 262.68C150.066 260.52 146.626 259.6 143.026 259.6C134.906 259.6 128.146 265.08 128.146 274.04C128.146 282.52 134.346 288.4 142.786 288.4C146.906 288.4 150.986 286.96 154.346 284.92L154.386 273.36H146.426V276.92ZM177.715 276.92H181.675L181.635 282.76C179.555 283.96 177.635 284.76 174.155 284.76C167.955 284.76 163.595 280.8 163.595 274.04C163.595 267.24 168.275 263.2 174.395 263.2C177.355 263.2 180.195 264 183.075 265.76L184.715 262.68C181.355 260.52 177.915 259.6 174.315 259.6C166.195 259.6 159.435 265.08 159.435 274.04C159.435 282.52 165.635 288.4 174.075 288.4C178.195 288.4 182.275 286.96 185.635 284.92L185.675 273.36H177.715V276.92ZM218.404 288L206.124 260H201.204L188.964 288H193.124L195.684 282.2H211.684L214.244 288H218.404ZM203.684 264.04L210.084 278.6H197.284L203.684 264.04Z" fill="white"/>
</svg>
