<svg width="951" height="861" viewBox="0 0 951 861" fill="none" xmlns="http://www.w3.org/2000/svg">
<path d="M252.01 120.499C232.284 120.499 224.582 100.393 223.053 88.9204C228.128 94.483 236.641 103.383 252.01 103.383C266.858 103.383 276.592 93.5095 281.042 88.9204C279.721 100.046 271.238 120.499 252.01 120.499Z" stroke="black" stroke-width="3"/>
<path d="M266.011 73.6499C266.011 81.465 259.676 87.8003 251.861 87.8003C244.046 87.8003 237.711 81.465 237.711 73.6499C237.711 65.8349 244.046 59.4995 251.861 59.4995C259.676 59.4995 266.011 65.8349 266.011 73.6499Z" stroke="black" stroke-width="3"/>
<path d="M436.211 617.21H67.7896V656.684H436.211V617.21Z" stroke="black" stroke-width="3" stroke-miterlimit="10"/>
<path d="M502 819.315H2V858.789H502V819.315Z" stroke="black" stroke-width="3" stroke-miterlimit="10"/>
<path d="M423.053 675.105H80.9474V656.684H423.053V675.105Z" stroke="black" stroke-width="3" stroke-miterlimit="10"/>
<path d="M409.895 693.526H94.1052V675.105H409.895V693.526Z" stroke="black" stroke-width="3" stroke-miterlimit="10"/>
<path d="M423.053 779.315H80.9473V759.315H423.053V779.315Z" stroke="black" stroke-width="3" stroke-miterlimit="10"/>
<path d="M449.368 799.315H54.6316V779.315H449.368V799.315Z" stroke="black" stroke-width="3" stroke-miterlimit="10"/>
<path d="M475.684 819.315H28.3157V799.315H475.684V819.315Z" stroke="black" stroke-width="3" stroke-miterlimit="10"/>
<path d="M373.053 538.265H130.947V564.581H373.053V538.265Z" stroke="black" stroke-width="3" stroke-miterlimit="10"/>
<path d="M386.211 564.581H117.79V590.896H386.211V564.581Z" stroke="black" stroke-width="3" stroke-miterlimit="10"/>
<path d="M399.368 590.897H104.632V617.213H399.368V590.897Z" stroke="black" stroke-width="3" stroke-miterlimit="10"/>
<path d="M359.895 511.918H144.105V538.234H359.895V511.918Z" stroke="black" stroke-width="3" stroke-miterlimit="10"/>
<path d="M396.737 693.526H107.263V759.315H396.737V693.526Z" stroke="black" stroke-width="3" stroke-miterlimit="10"/>
<path d="M183.239 485.499C183.239 485.499 153.092 430.456 153.317 403.999C153.543 370.921 214.079 361.815 214.079 361.815H290.246C290.246 361.815 350.457 370.782 350.683 403.889C350.908 430.374 325.297 485.499 325.297 485.499" stroke="black" stroke-width="3" stroke-miterlimit="10"/>
<path fill-rule="evenodd" clip-rule="evenodd" d="M252.868 379.15L251.936 378.323L250.942 379.197L223.398 403.385L222.888 403.833V404.512V416.391L212.017 424.137L211.985 424.16L211.953 424.185C205.358 429.434 203.805 437.775 203.789 444.471C203.781 447.855 204.163 450.917 204.546 453.13C204.737 454.239 204.93 455.139 205.076 455.767C205.148 456.08 205.21 456.326 205.253 456.496C205.275 456.581 205.293 456.647 205.305 456.693L205.319 456.745L205.32 456.746L212.451 485.438L215.363 484.715L208.226 456.002L208.221 455.981L208.215 455.96L208.215 455.96L208.215 455.959L208.215 455.959L208.212 455.951L208.202 455.913C208.192 455.877 208.178 455.822 208.159 455.748C208.121 455.6 208.065 455.377 207.998 455.088C207.863 454.509 207.682 453.665 207.502 452.619C207.14 450.524 206.781 447.642 206.789 444.478C206.805 438.092 208.305 430.945 213.791 426.556L225.258 418.385L225.888 417.937V417.164V405.191L251.137 383.017L251.138 383.018L251.927 382.325L252.593 382.915L252.604 382.903L278.111 405.193V417.164V417.937L278.741 418.385L290.208 426.556C295.694 430.945 297.194 438.092 297.21 444.478C297.218 447.642 296.859 450.524 296.497 452.619C296.316 453.665 296.136 454.509 296.001 455.088C295.934 455.377 295.878 455.6 295.84 455.748C295.821 455.822 295.806 455.877 295.797 455.913L295.786 455.951L295.784 455.959L295.784 455.959L295.784 455.96L295.784 455.96L295.778 455.981L295.773 456.002L288.636 484.715L291.548 485.438L298.679 456.746L298.679 456.745L298.694 456.693C298.706 456.647 298.723 456.581 298.745 456.496C298.789 456.326 298.85 456.08 298.923 455.767C299.069 455.139 299.262 454.239 299.453 453.13C299.836 450.917 300.218 447.855 300.21 444.471C300.194 437.775 298.641 429.434 292.045 424.185L292.014 424.16L291.982 424.137L281.111 416.391V404.512V403.831L280.598 403.382L252.919 379.194L252.868 379.15Z" fill="black"/>
<path d="M346.737 485.57H157.264V511.886H346.737V485.57Z" stroke="black" stroke-width="3" stroke-miterlimit="10"/>
<path d="M120.503 724.17L137.893 706.781" stroke="black" stroke-width="3" stroke-miterlimit="10"/>
<path d="M123.981 745.037L158.76 710.258" stroke="black" stroke-width="3" stroke-miterlimit="10"/>
<path d="M220.684 154.811H253.044H283.285V143.382L269.382 136.293V123.51H234.587V136.293L220.684 143.382V154.811Z" fill="#EBF9E5" stroke="black" stroke-width="3" stroke-miterlimit="10"/>
<path d="M239.474 155.237L216.605 317.079H251.474H286.342L263.995 155.237H239.474Z" stroke="black" stroke-width="3"/>
<path d="M228.053 236.289H252" stroke="black" stroke-width="3"/>
<path d="M223.842 263.262L252 263.262" stroke="black" stroke-width="3"/>
<path d="M220.553 290.237L251.474 290.237" stroke="black" stroke-width="3"/>
<path d="M231.737 209.184H252" stroke="black" stroke-width="3"/>
<path d="M235.026 182.21H251.474" stroke="black" stroke-width="3"/>
<line x1="216.28" y1="317.217" x2="228.018" y2="336.428" stroke="black" stroke-width="3"/>
<path d="M286.501 317.5L275.049 336.261" stroke="black" stroke-width="3"/>
<rect x="213.842" y="335.5" width="76.3158" height="26.3158" stroke="black" stroke-width="3"/>
<g opacity="0.2">
<path d="M978.148 209.004L982.269 165.705L939.931 188.238L978.148 209.004Z" fill="#FF5C39" stroke="#FF5C39"/>
<path d="M915.184 249.344L925.363 194.481L868.704 218.47L915.184 249.344Z" fill="#C8102E" stroke="#C8102E"/>
<path d="M836.121 276.552L852.294 223.148L793.333 240.736L836.121 276.552Z" fill="#FFC72C" stroke="#FFC72C"/>
<path d="M754.354 295.65L776.683 244.513L716.065 255.061L754.354 295.65Z" fill="#8A1538" stroke="#8A1538"/>
<path d="M714.921 254.769C822.124 241.785 1059.16 172.961 1147.76 1.87835" stroke="black" stroke-width="2"/>
<path d="M301.962 195.506L303.542 172.73L323.27 187.307L301.962 195.506Z" fill="#FF5C39" stroke="#FF5C39"/>
<path d="M341.164 228.779L338.927 196.284L369.512 212.738L341.164 228.779Z" fill="#C8102E" stroke="#C8102E"/>
<path d="M395.217 258.352L386.938 220.37L426.727 235.587L395.217 258.352Z" fill="#FFC72C" stroke="#FFC72C"/>
<path d="M451.681 275.356L438.537 238.66L480.286 248.877L451.681 275.356Z" fill="#8A1538" stroke="#8A1538"/>
<path d="M513.215 290.984L494.533 251.706L542.024 258.399L513.215 290.984Z" fill="#FF5C39" stroke="#FF5C39"/>
<path d="M586.179 307.357L557.849 259.285L619.296 262.448L586.179 307.357Z" fill="#C8102E" stroke="#C8102E"/>
<path d="M669.779 305.882L636.316 261.23L697.737 257.592L669.779 305.882Z" fill="#FFC72C" stroke="#FFC72C"/>
<path d="M753.146 295.862L714.675 255.446L775.244 244.625L753.146 295.862Z" fill="#8A1538" stroke="#8A1538"/>
<path d="M776.22 243.96C671.04 268.425 424.761 284.822 282.992 154.36" stroke="black" stroke-width="2"/>
</g>
<g opacity="0.2">
<path d="M978.944 538.989L993.692 503.022L951.865 511.098L978.944 538.989Z" fill="#FFC72C" stroke="#FFC72C"/>
<path d="M920.385 545.929L939.701 512.073L896.812 514.885L920.385 545.929Z" fill="#8A1538" stroke="#8A1538"/>
<path d="M857.072 550.635L882.29 515.198L834.358 513.542L857.072 550.635Z" fill="#FF5C39" stroke="#FF5C39"/>
<path d="M782.373 554.089L818.62 511.666L757.558 504.111L782.373 554.089Z" fill="#C8102E" stroke="#C8102E"/>
<path d="M700.299 538.12L741.007 499.957L681.152 485.709L700.299 538.12Z" fill="#FFC72C" stroke="#FFC72C"/>
<path d="M619.938 513.775L664.844 480.653L607.073 459.479L619.938 513.775Z" fill="#8A1538" stroke="#8A1538"/>
<path d="M606.228 458.655C705.561 501.012 945.251 559.927 1107.52 456.064" stroke="black" stroke-width="2"/>
<path d="M278.328 200.87L291.028 182.018L300.781 204.407L278.328 200.87Z" fill="#FF5C39" stroke="#FF5C39"/>
<path d="M295.527 249.294L309.849 220.009L328.125 249.577L295.527 249.294Z" fill="#C8102E" stroke="#C8102E"/>
<path d="M327.565 301.907L339.386 264.875L366.236 297.947L327.565 301.907Z" fill="#FFC72C" stroke="#FFC72C"/>
<path d="M367.963 344.864L374.927 306.513L405.974 336.236L367.963 344.864Z" fill="#8A1538" stroke="#8A1538"/>
<path d="M413.438 389.166L416.898 345.81L454.68 375.351L413.438 389.166Z" fill="#FF5C39" stroke="#FF5C39"/>
<path d="M468.44 439.827L467.942 384.03L519.575 417.493L468.44 439.827Z" fill="#C8102E" stroke="#C8102E"/>
<path d="M541.577 480.35L534.923 424.949L589.934 452.508L541.577 480.35Z" fill="#FFC72C" stroke="#FFC72C"/>
<path d="M618.785 513.356L605.676 459.119L663.541 480.032L618.785 513.356Z" fill="#8A1538" stroke="#8A1538"/>
<path d="M664.719 479.944C561.399 448.542 339.916 339.603 282.371 155.735" stroke="black" stroke-width="2"/>
</g>
</svg>
