<svg width="554" height="146" viewBox="0 0 554 146" fill="none" xmlns="http://www.w3.org/2000/svg">
<path d="M54.6973 49.6941H60.6897C58.6323 54.5979 56.0523 62.9689 55.721 72.803C53.2242 76.5981 52.8164 81.8597 52.8164 81.8597C65.3388 71.508 84.0149 85.079 87.4988 87.7922L87.5587 88.2483C87.5587 88.2483 87.572 88.1151 87.592 87.8654C87.9049 88.1101 88.0714 88.2483 88.0714 88.2483C87.9227 87.972 87.7746 87.699 87.627 87.4293C87.9599 83.1398 89.2482 62.9256 84.9753 49.6941H97.6891L104.735 137.599L106.455 46.6397L108.725 40.8721H58.371L54.6973 49.6941ZM75.5141 49.6941C79.3425 54.6878 84.446 65.196 87.3906 87.0099C74.1076 63.1953 59.4479 69.5222 59.4479 69.5222C58.3402 69.9973 57.3595 70.726 56.5849 71.6495C58.3027 66.834 62.4824 56.6686 69.2188 49.6941H75.5141Z" fill="black"/>
<path d="M38.4588 68.1739C40.5078 66.5393 43.5822 63.618 44.6475 61.9618C45.0853 61.281 52.4792 51.0075 44.2614 46.9377L47.1393 40.8721H13.95C13.95 40.8721 1.79888 54.4181 0.207581 61.9735C0.0424603 63.2208 -0.0243191 64.4792 0.00784396 65.737C0.126026 68.7149 1.27789 73.7584 6.72593 78.9068L16.064 70.8305C16.064 70.8305 2.91413 66.4761 7.78291 54.4181C7.78291 54.4181 9.72043 52.0745 11.0421 51.5535L36.4114 51.2921C36.4114 51.2921 45.3999 57.2845 38.527 65.6205L36.3431 67.9309C33.0923 67.8693 28.4732 68.8281 25.5552 71.3082C21.1658 75.0401 18.416 82.1394 18.416 82.1394C18.416 82.1394 28.3816 77.1924 33.7115 78.2028C47.7519 80.866 52.4792 92.5178 52.4792 92.5178C50.7364 82.0528 45.4249 69.9516 38.4588 68.1739Z" fill="black"/>
<path d="M115.298 7.7834C106.599 15.9829 97.2443 9.92401 88.3124 12.5357C82.1369 14.3434 80.6555 22.969 80.3525 28.1824C71.1976 9.37304 57.768 12.2743 57.768 12.2743C53.5451 14.8078 48.4766 22.1235 48.4766 22.1235C69.8759 15.928 84.5189 39.5811 84.5189 39.5811C83.6598 36.3367 82.5598 33.1608 81.2281 30.08C83.124 24.344 87.575 21.7106 88.1409 21.3111C92.6602 18.1169 102.047 22.9757 109.958 18.5297C116.665 14.7628 121.918 0 121.918 0C120.202 1.50142 118.204 5.04856 115.298 7.7834Z" fill="black"/>
<path d="M410.847 83.3085C403.388 63.3489 379.886 67.9115 368.761 70.0537C371 63.1925 376.439 53.8378 383.221 49.2187H411.941L414.829 40.6846H369.49L366.445 49.2187H372.213C369.48 53.9676 365.793 63.6153 366.074 73.6874L363.145 79.6798C363.145 79.6798 394.105 71.8015 404.392 89.5255C404.392 89.5255 408.087 94.6041 411.103 102.489C415.568 114.166 420.11 131.607 421.678 144.667C421.678 144.667 421.079 119.807 417.41 102.967C414.885 91.3715 412.648 88.1306 410.847 83.3085Z" fill="black"/>
<path d="M396.424 36.5662L397.264 37.5133C397.113 37.247 396.099 34.4788 395.964 34.2075C381.609 5.12963 359.031 4.14258 359.031 4.14258C353.801 4.66524 348.571 11.4666 348.571 11.4666C371.321 10.4179 396.424 36.5662 396.424 36.5662Z" fill="black"/>
<path d="M447.284 63.0803C449.515 59.5482 451.309 54.2682 446.795 49.5376H462.996L465.547 40.3477H423.934L421.171 49.5376H439.08C442.317 52.4505 446.362 57.2294 445.751 62.521C443.534 61.8455 441.226 61.5132 438.908 61.5356C435.038 61.5439 432.443 62.1165 429.285 63.6196C421.619 68.6133 419.087 74.018 420.199 80.573C421.677 89.2702 427.256 94.1939 436.739 93.866C444.864 93.5847 451.043 87.6423 451.043 78.5988C451.044 77.7638 450.988 76.9296 450.876 76.102C452.413 78.0712 454.793 81.1173 456.158 84.1035C467.477 108.885 470.501 145.999 470.501 145.999C470.501 145.999 471.575 70.8121 447.284 63.0803ZM437.089 88.4396C431.361 89.1137 423.469 84.9291 423.29 79.0749C423.208 76.4116 424.633 72.0455 430.056 69.7534C430.056 69.7534 440.654 64.2371 447.855 72.9993C449.282 74.6572 448.388 87.108 437.08 88.4396H437.089Z" fill="black"/>
<path d="M470.702 50.7528C475.077 50.087 475.925 57.0398 475.925 57.0398C476.109 54.31 481.15 40.5459 481.15 40.5459L474.201 40.5176L470.702 50.7528Z" fill="black"/>
<path d="M546.275 40.5176L542.779 50.7528C547.154 50.087 548.003 57.0398 548.003 57.0398C548.169 54.7444 546.686 58.3947 553.228 40.5459L546.275 40.5176Z" fill="black"/>
<path d="M114.417 49.6941H120.409C118.352 54.5979 115.772 62.9689 115.441 72.803C112.944 76.5981 112.536 81.8597 112.536 81.8597C125.058 71.508 143.735 85.079 147.219 87.7922L147.278 88.2483C147.278 88.2483 147.292 88.1151 147.312 87.8654C147.625 88.1101 147.791 88.2483 147.791 88.2483C147.644 87.972 147.495 87.699 147.347 87.4293C147.68 83.1398 148.968 62.9256 144.695 49.6941H157.409L164.455 137.599L166.174 46.6397L167.945 40.8721H118.091L114.417 49.6941ZM135.234 49.6941C139.071 54.6878 144.166 65.196 147.11 87.0099C133.827 63.1953 119.168 69.5222 119.168 69.5222C118.06 69.9969 117.079 70.7256 116.305 71.6495C118.022 66.834 122.202 56.6686 128.939 49.6941H135.234Z" fill="black"/>
<path d="M229.089 40.7511L225.452 50.8782C225.452 50.8782 231.827 47.7006 237.243 90.3611C235.545 87.7295 226.459 74.2284 215.887 69.7208C204.708 64.9602 197.015 66.1587 190.575 66.9377C193.366 61.3814 197.707 54.417 203.746 49.2802H215.746L218.823 40.7461H193.02L190.138 49.2885H194.851C193.03 52.6026 190.037 59.0993 187.936 69.0034L185.516 76.8051L185.163 77.7173C185.163 77.7173 195.625 70.593 215.871 77.7173C222.72 80.1275 228.479 83.0737 237.272 90.5975C237.302 90.8338 237.332 91.0635 237.361 91.3032V90.674L237.528 90.8155C237.528 90.8155 237.471 90.724 237.361 90.5525L236.363 50.8832L239.757 40.7561L229.089 40.7511Z" fill="black"/>
<path d="M176.91 40.8721L173.414 51.1073C177.788 50.4415 178.637 57.3943 178.637 57.3943C178.796 55.0972 177.321 58.7476 183.861 40.9004L176.91 40.8721Z" fill="black"/>
<path d="M257.79 11.2471C267.584 16.2657 286.893 35.5344 286.893 35.5344C284.897 29.647 269.177 10.8093 261.537 4.67881C253.897 -1.4517 245.975 3.80326 245.975 3.80326C245.975 3.80326 241.106 7.61005 238.097 13.6507C232.218 25.4589 248.069 28.53 248.069 28.53L252.32 21.0895C234.596 19.9959 241.055 11.6899 241.597 10.806C242.14 9.92213 247.593 6.02043 257.79 11.2471Z" fill="black"/>
<path d="M298.825 39.9092L295.329 50.1444C299.704 49.4786 300.552 56.4314 300.552 56.4314C300.719 54.1344 299.236 57.7847 305.776 39.9375L298.825 39.9092Z" fill="black"/>
<path d="M536.836 40.5665H526.166L522.529 50.6936C522.529 50.6936 527.905 47.5159 533.322 90.1765C531.624 87.5449 522.537 74.0438 511.966 69.5362C500.787 64.7756 494.092 65.9741 487.652 66.7531C490.443 61.1968 494.784 54.2324 500.823 49.0956H512.83L515.907 40.5615H490.097L486.883 49.0956H491.928C490.107 52.4097 487.114 58.9064 485.013 68.8105L482.593 76.6121L482.24 77.5243C482.24 77.5243 491.703 70.4001 511.949 77.5243C518.799 79.9346 524.558 82.8808 533.35 90.4046C533.35 90.4345 533.44 90.4811 533.44 90.4811C533.497 90.5294 533.44 50.6986 533.44 50.6986L536.836 40.5665Z" fill="black"/>
<path d="M336.201 77.361C342.647 79.768 348.067 82.7076 356.333 90.208C356.347 90.218 356.455 90.3178 356.455 90.3178C356.508 90.3661 356.455 50.5353 356.455 50.5353L360.025 40.4082H314.084L311.317 48.9423H317.328C315.61 52.2564 312.79 58.7532 310.811 68.6572L308.529 76.4589L308.196 77.371C308.196 77.371 317.117 70.2385 336.201 77.361ZM325.714 48.934H346.492C347.684 49.4051 351.999 53.6979 356.341 90.0099C354.742 87.3782 346.178 73.8771 336.216 69.3696C325.679 64.6073 319.37 65.8058 313.3 66.5848C315.933 61.0352 320.025 54.0708 325.716 48.934H325.714Z" fill="black"/>
<path d="M248.907 78.2416L258.243 70.1669C258.243 70.1669 245.093 65.8108 249.964 53.7529C249.964 53.7529 251.9 51.4092 253.223 50.8882L278.592 50.6268C278.592 50.6268 287.581 56.6192 280.706 64.9552L278.524 67.2656C275.273 67.204 270.653 68.1628 267.735 70.643C263.347 74.3749 260.595 81.4741 260.595 81.4741C260.595 81.4741 270.563 76.5271 275.892 77.5392C289.933 80.2024 294.66 91.8542 294.66 91.8542C292.917 81.3976 287.606 69.2963 280.64 67.5186C282.689 65.884 285.763 62.9628 286.829 61.3065C287.265 60.6257 294.66 50.5935 286.441 46.2824L288.655 40.2168H256.129C256.129 40.2168 243.978 53.7628 242.387 61.3182C240.856 68.6056 242.925 70.4765 248.907 78.2416Z" fill="black"/>
</svg>
