<svg width="560" height="146" viewBox="0 0 560 146" fill="none" xmlns="http://www.w3.org/2000/svg">
<path d="M37.1465 7.31599L33.0091 13.8851C36.7966 13.1139 43.3444 13.7245 45.2337 17.2545C46.6078 19.83 43.7187 21.9237 41.6325 22.9267C38.754 24.3114 32.3485 23.8114 29.3609 21.2238C25.5976 17.9696 21.1511 14.1032 17.8468 10.3369C8.80979 0.00151187 0 0 0 0C0 0 9.39307 1.009 20.2284 19.4133C26.9626 30.8426 37.0056 29.9321 38.0752 29.4988C40.8265 28.3853 42.8854 25.2795 45.4988 22.4919C47.4925 20.3708 49.1242 16.5682 48.0077 14.1214C45.3367 8.28258 37.1465 7.31599 37.1465 7.31599Z" fill="black"/>
<path d="M25.2677 57.7255H25.4692C27.0161 60.8737 31.4884 71.9226 33.1246 97.0673V57.7255H40.689L47.3551 122.006V57.7255L50.932 49.958H5.53776L2.55014 57.7255L24.7011 57.6921C23.8124 60.2999 22.3492 62.6748 20.4197 64.6415C19.2865 65.8126 18.1229 66.9428 14.6899 67.4397C11.2569 67.9366 8.29811 68.9032 6.33011 70.7727C2.13656 74.7708 1.27148 80.9233 1.27148 80.9233C3.46219 74.7496 12.2296 74.7118 17.4821 72.4074C23.0998 69.9471 25.1874 61.7812 25.2677 57.7255Z" fill="black"/>
<path d="M114.913 84.5774L123.411 77.2266C123.411 77.2266 111.442 73.2633 115.875 62.2886C115.875 62.2886 117.639 60.1554 118.842 59.6797L141.932 59.4434C141.932 59.4434 150.113 64.8974 143.856 72.4846L141.87 74.5783C138.911 74.5238 134.705 75.3964 132.051 77.6538C128.056 81.0489 125.552 87.5105 125.552 87.5105C125.552 87.5105 134.624 83.0079 139.475 83.929C152.254 86.353 156.556 96.9581 156.556 96.9581C154.97 87.4423 150.136 76.4267 143.795 74.8086C145.66 73.3209 148.459 70.662 149.428 69.1561C149.825 68.538 156.549 59.407 149.077 55.4831L152.757 49.9609H121.487C121.487 49.9609 110.427 62.2916 108.979 69.1667C107.585 75.813 109.468 77.5099 114.913 84.5774Z" fill="black"/>
<path d="M202.156 93.8299V58.4695L205.761 49.834H165.684L160.141 57.106H165.736C164.137 59.9315 161.512 65.4734 159.676 73.9227L157.554 80.5766L157.251 81.3538C157.251 81.3538 165.554 75.2786 183.31 81.3538C189.218 83.3733 193.441 87.4744 200.929 93.6966C200.685 94.8828 200.02 98.484 197.155 100.717C195.043 102.365 192.201 103.709 189.685 104.011C183.811 104.711 176.686 100.922 175.657 100.282C172.689 98.437 168.484 96.0267 166.051 95.71C162.793 95.2843 158.306 98.684 155.761 100.505L157.924 100.581C158.879 100.732 160.407 101.169 162.231 102.423C165.716 104.818 171.077 111.83 173.924 114.392C181.74 121.438 186.709 121.058 193.86 118.603C204.988 114.773 213.404 99.7627 213.404 99.7627C213.404 99.7627 210.645 103.923 208.138 106.208C205.63 108.492 196.974 113.158 192.438 113.82C185.705 114.804 182.207 114.292 175.206 109.085C174.071 108.241 166.907 100.543 163.425 100.088C161.816 99.8671 160.184 99.8742 158.577 100.11C160.921 98.4431 163.18 96.9705 165.907 97.3265C168.146 97.6205 172.118 100.087 175.013 101.888C176.053 102.535 182.689 107.318 190.561 105.662C200.005 103.677 201.937 95.8615 202.158 93.9329L202.156 93.8299ZM183.316 74.5438C173.508 70.4836 167.635 71.5062 161.984 72.1713C164.434 67.4308 168.241 61.492 173.539 57.1121H192.885C193.994 57.5136 201.447 93.1572 201.447 93.1572C201.447 93.1572 192.073 78.1692 183.316 74.5438Z" fill="black"/>
<path d="M281.83 38.2783L285.697 31.5062C269.566 30.5108 275.445 22.9494 275.939 22.1465C276.433 21.3435 281.393 17.7878 290.677 22.5449C299.59 27.1127 317.166 44.6504 317.166 44.6504C315.348 39.2918 301.034 22.1464 294.086 16.5697C287.138 10.9929 279.924 15.7728 279.924 15.7728C279.924 15.7728 275.491 19.2361 272.753 24.7356C267.395 35.4831 281.83 38.2783 281.83 38.2783Z" fill="black"/>
<path d="M424.052 94.0896C424.052 94.0896 427.415 98.7104 430.16 105.889C434.225 116.515 438.358 132.391 439.785 144.277C439.785 144.277 439.24 121.649 435.902 106.322C433.602 95.7713 431.566 92.8201 429.927 88.4311C423.138 70.2646 401.748 74.4187 391.623 76.3685C393.659 70.1221 398.61 61.6078 404.782 57.4052H430.922L433.551 49.6377H392.287L389.514 57.4052H394.765C392.276 61.7275 388.92 70.507 389.176 79.6682L386.51 85.1223C386.51 85.1223 414.697 77.9578 424.052 94.0896Z" fill="black"/>
<path d="M381.495 44.3132L382.26 45.1737C382.122 44.9328 381.2 42.4133 381.077 42.1664C368.011 15.6992 347.462 14.8008 347.462 14.8008C342.702 15.2765 337.941 21.4668 337.941 21.4668C358.641 20.5139 381.495 44.3132 381.495 44.3132Z" fill="black"/>
<path d="M466.51 84.153C466.511 83.3929 466.46 82.6336 466.358 81.8804C467.758 83.6712 469.923 86.4437 471.165 89.1631C481.467 111.717 484.22 145.499 484.22 145.499C484.22 145.499 485.206 77.0642 463.09 70.0255C465.12 66.8106 466.754 62.0065 462.646 57.6993H477.39L479.713 49.335H441.838L439.323 57.6993H455.624C458.571 60.3521 462.252 64.7017 461.696 69.524C459.678 68.9079 457.577 68.6049 455.467 68.6256C451.944 68.6256 449.582 69.1559 446.708 70.5224C439.73 75.0674 437.426 79.9867 438.44 85.9528C439.783 93.8702 444.862 98.3516 453.494 98.0517C460.881 97.7911 466.51 92.3825 466.51 84.153ZM453.808 93.1021C448.593 93.7157 441.41 89.907 441.247 84.5787C441.173 82.1547 442.469 78.1808 447.407 76.0946C447.407 76.0946 457.051 71.0739 463.605 79.0489C464.905 80.5594 464.095 91.8901 453.805 93.1021H453.808Z" fill="black"/>
<path d="M362.454 83.4299C368.322 85.6191 373.255 88.2961 380.779 95.1212L380.889 95.2212C380.938 95.2652 380.889 59.0049 380.889 59.0049L384.139 49.7891H342.325L339.807 57.5565H345.277C343.715 60.5714 341.147 66.486 339.346 75.4988L337.28 82.5997L336.977 83.4299C336.977 83.4299 345.088 76.9456 362.454 83.4299ZM352.91 57.5565H371.822C372.907 57.9838 376.833 61.891 380.785 94.9424C379.329 92.5457 371.534 80.259 362.467 76.1563C352.878 71.8234 347.135 72.9127 341.611 73.6232C344.008 68.5691 347.733 62.2303 352.911 57.5565H352.91Z" fill="black"/>
<path d="M489.161 64.5243C489.328 62.0397 493.915 49.5121 493.915 49.5121L487.592 49.4863L484.41 58.8021C488.387 58.2022 489.161 64.5243 489.161 64.5243Z" fill="black"/>
<path d="M553.191 49.1836L550.01 58.4994C553.991 57.8934 554.765 64.2216 554.765 64.2216C554.909 62.1309 553.567 65.4533 559.519 49.2093L553.191 49.1836Z" fill="black"/>
<path d="M72.5604 69.1246C69.038 69.1246 66.6761 69.6549 63.8021 71.0214C56.824 75.5664 54.5197 80.4857 55.5317 86.4518C56.877 94.3692 61.9553 98.8491 70.5864 98.5507C77.9811 98.2946 83.6048 92.8861 83.6048 84.655C83.6058 83.8949 83.5552 83.1357 83.4533 82.3825C84.8517 84.1732 87.0182 86.9457 88.2605 89.6636C98.5625 112.219 101.315 145.999 101.315 145.999C101.315 145.999 102.302 77.5617 80.1824 70.5245C82.2126 67.3096 83.8457 62.504 79.737 58.1984H94.4826L97.4111 49.834H58.9299L55.6574 58.1984H72.7149C75.6616 60.8511 79.3431 65.2007 78.7871 70.023C76.7697 69.407 74.6697 69.1041 72.5604 69.1246ZM80.7021 79.5464C82.005 81.0614 81.1945 92.3937 70.903 93.6057C65.6898 94.2192 58.5072 90.4105 58.3436 85.0822C58.2693 82.6582 59.5662 78.6843 64.5021 76.5982C64.5021 76.5921 74.1482 71.5698 80.7021 79.5464Z" fill="black"/>
<path d="M209.602 87.1512C209.602 87.1512 211.395 85.8498 211.447 85.7877C211.479 85.7498 223.578 77.8142 239.046 84.2257C246.265 87.2163 249.651 88.6116 259.253 96.2397C259.253 96.2397 251.981 81.5335 239.372 76.5749C227.403 71.8677 220.81 73.1555 213.859 76.1325C215.577 70.5967 217.39 62.8277 222.812 58.1569H248.675L251.616 50.0713H213.883L210.208 58.1569H214.921C213.709 61.4672 211.545 68.9468 211.31 80.3351L209.602 87.1512Z" fill="black"/>
<path d="M106.998 64.996C107.165 62.5114 111.752 49.9838 111.752 49.9838L105.429 49.958L102.247 59.2738C106.218 58.6754 106.998 64.996 106.998 64.996Z" fill="black"/>
<path d="M329.356 64.8153C329.522 62.3307 334.11 49.8031 334.11 49.8031L327.786 49.7773L324.604 59.0931C328.581 58.4932 329.356 64.8153 329.356 64.8153Z" fill="black"/>
<path d="M261.243 64.9667C261.41 62.4821 265.997 49.9545 265.997 49.9545L259.674 49.9287L256.492 59.2445C260.468 58.6446 261.243 64.9667 261.243 64.9667Z" fill="black"/>
<path d="M274.617 49.9414L271.273 57.971H276.728C274.855 62.4342 272.507 70.0532 272.205 79.0039C269.933 82.4566 269.562 87.247 269.562 87.247C280.959 77.8252 297.957 90.1771 301.128 92.6465C301.14 92.7314 302.721 70.0138 298.832 57.971H310.403L316.816 137.979L318.381 55.1909L319.993 49.9414H274.617ZM301.03 91.9345C288.94 70.2592 275.597 76.0178 275.597 76.0178C274.589 76.4498 273.696 77.1131 272.991 77.9539C274.555 73.571 278.359 64.3189 284.49 57.971H290.22C293.712 62.5205 298.344 72.0802 301.03 91.9345Z" fill="black"/>
<path d="M544.558 49.7893H534.849L531.538 59.0051C531.538 59.0051 536.432 56.1129 541.362 94.9411C539.816 92.5459 531.546 80.2592 521.924 76.155C511.749 71.8221 505.656 72.9114 499.794 73.6219C502.335 68.5633 506.286 62.2245 511.783 57.5491H522.717L525.518 49.7832H502.02L499.095 57.5491H503.687C502.029 60.5655 499.305 66.4877 497.393 75.4929L495.19 82.5938L494.869 83.424C494.869 83.424 503.482 76.9398 521.909 83.424C528.143 85.6162 533.385 88.2978 541.388 95.1457C541.388 95.173 541.469 95.2154 541.469 95.2154C541.521 95.2593 541.469 58.999 541.469 58.999L544.558 49.7893Z" fill="black"/>
<path d="M39.066 121.318L34.9301 127.889C38.7176 127.116 45.2655 127.726 47.1532 131.256C48.5288 133.832 45.6381 135.926 43.552 136.929C40.6735 138.313 34.268 137.813 31.2804 135.226C27.5156 131.971 23.069 128.105 19.7663 124.339C10.7277 114.003 1.91797 114.002 1.91797 114.002C1.91797 114.002 11.3035 115.011 22.1464 133.415C28.8806 144.845 38.9236 143.934 39.9947 143.501C42.7445 142.387 44.8034 139.281 47.4183 136.494C49.412 134.373 51.0422 130.57 49.9256 128.123C47.2607 122.285 39.066 121.318 39.066 121.318Z" fill="black"/>
<path d="M194.006 123.177L189.868 129.747C193.656 128.975 200.204 129.587 202.093 133.115C203.467 135.691 200.578 137.786 198.492 138.789C195.613 140.174 189.208 139.674 186.22 137.086C182.457 133.832 178.01 129.966 174.706 126.199C165.669 115.862 156.859 115.862 156.859 115.862C156.859 115.862 166.252 116.871 177.088 135.274C183.822 146.705 193.865 145.794 194.935 145.361C197.686 144.248 199.745 141.14 202.358 138.354C204.352 136.226 205.984 132.429 204.867 129.982C202.199 124.142 194.006 123.177 194.006 123.177Z" fill="black"/>
</svg>
